<?xml version="1.0" encoding="UTF-8" standalone="no"?>
<!-- Created with Inkscape (http://www.inkscape.org/) -->

<svg
   version="1.1"
   id="svg2"
   xml:space="preserve"
   width="2282.6218"
   height="902.42847"
   viewBox="0 0 2282.6219 902.42847"
   sodipodi:docname="csic.svg"
   inkscape:version="1.1.2 (b8e25be833, 2022-02-05)"
   xmlns:inkscape="http://www.inkscape.org/namespaces/inkscape"
   xmlns:sodipodi="http://sodipodi.sourceforge.net/DTD/sodipodi-0.dtd"
   xmlns="http://www.w3.org/2000/svg"
   xmlns:svg="http://www.w3.org/2000/svg"><defs
     id="defs6" /><sodipodi:namedview
     id="namedview4"
     pagecolor="#ffffff"
     bordercolor="#666666"
     borderopacity="1.0"
     inkscape:pageshadow="2"
     inkscape:pageopacity="0.0"
     inkscape:pagecheckerboard="0"
     showgrid="false"
     inkscape:zoom="0.59341372"
     inkscape:cx="1750.0438"
     inkscape:cy="531.66954"
     inkscape:window-width="864"
     inkscape:window-height="1474"
     inkscape:window-x="3065"
     inkscape:window-y="132"
     inkscape:window-maximized="1"
     inkscape:current-layer="g8" /><g
     id="g8"
     inkscape:groupmode="layer"
     inkscape:label="ink_ext_XXXXXX"
     transform="matrix(1.3333333,0,0,-1.3333333,-0.71406266,65.120271)"><g
       id="g10"
       transform="matrix(1.3904583,0,0,1.3904583,-6.9110107,-630.26241)"><path
         d="M 1236.58,1.64063 H 5.35547 V 488.402 H 1236.58 V 1.64063"
         style="fill:#ffffff;fill-opacity:1;fill-rule:nonzero;stroke:none"
         id="path12" /><path
         d="m 185.258,148.477 -2.449,-4.102 -0.45,0.293 c 0.086,0.332 0.145,0.566 0.145,0.703 0,0.508 -0.723,1.055 -2.129,1.777 -1.953,0.977 -4.102,1.387 -6.406,1.387 -3.086,0 -5.625,-0.84 -7.559,-2.558 -1.98,-1.758 -2.937,-4.043 -2.937,-6.817 0,-2.754 1.004,-5.058 3.054,-6.894 1.985,-1.817 4.395,-2.735 7.325,-2.735 2.832,0 5.332,0.879 7.48,2.5 0.996,0.762 1.477,1.25 1.477,1.563 0,0.195 -0.09,0.449 -0.286,0.801 l 0.391,0.312 2.988,-3.613 -0.429,-0.332 c -0.313,0.312 -0.547,0.429 -0.762,0.429 -0.117,0 -0.34,-0.117 -0.625,-0.371 -1.035,-0.722 -1.863,-1.328 -2.547,-1.699 -0.695,-0.371 -1.398,-0.703 -2.207,-0.957 -1.66,-0.586 -3.488,-0.879 -5.449,-0.879 -3.86,0 -6.965,1.055 -9.348,3.164 -2.539,2.266 -3.789,5.098 -3.789,8.594 0,2.754 0.781,5.059 2.363,7.109 2.442,3.106 6.153,4.688 11.094,4.688 3.223,0 6.379,-0.84 9.426,-2.617 0.203,-0.078 0.34,-0.098 0.41,-0.098 0.145,0 0.418,0.156 0.781,0.625 l 0.438,-0.273"
         style="fill:#231f20;fill-opacity:1;fill-rule:nonzero;stroke:none"
         id="path14" /><path
         d="m 200.453,146.777 c 3.301,0 5.988,-0.839 8.027,-2.636 2.188,-1.797 3.262,-4.219 3.262,-7.227 0,-1.875 -0.527,-3.633 -1.59,-5.215 -2.011,-2.91 -5.246,-4.414 -9.679,-4.414 -3.301,0 -5.938,0.879 -7.989,2.578 -2.175,1.836 -3.261,4.239 -3.261,7.168 0,1.953 0.539,3.731 1.582,5.313 1.133,1.66 2.707,2.871 4.726,3.594 1.399,0.546 3.028,0.8 4.922,0.839 m 0,-1.953 c -2.723,0 -4.902,-0.801 -6.543,-2.48 -1.445,-1.485 -2.187,-3.242 -2.187,-5.313 0,-2.129 0.742,-3.867 2.187,-5.332 1.641,-1.64 3.828,-2.519 6.563,-2.519 2.773,0 4.961,0.879 6.582,2.519 1.457,1.465 2.187,3.164 2.187,5.215 0,2.188 -0.73,3.984 -2.187,5.43 -1.641,1.64 -3.848,2.441 -6.602,2.48"
         style="fill:#231f20;fill-opacity:1;fill-rule:nonzero;stroke:none"
         id="path16" /><path
         d="m 218.324,143.438 v -13.907 c 0,-0.41 0.078,-0.742 0.215,-0.957 0.137,-0.156 0.41,-0.351 0.84,-0.41 v -0.488 h -4.102 v 0.488 c 0.45,0.059 0.723,0.254 0.86,0.41 0.117,0.215 0.226,0.547 0.226,0.957 v 14.942 c 0,0.527 -0.109,0.84 -0.234,0.996 -0.149,0.176 -0.422,0.332 -0.852,0.469 v 0.39 h 6.075 v -0.39 c -0.567,-0.235 -0.879,-0.508 -0.879,-0.899 0,-0.332 0.207,-0.684 0.625,-1.211 l 11.035,-12.344 v 12.989 c 0,0.527 -0.098,0.84 -0.242,0.996 -0.149,0.176 -0.422,0.332 -0.852,0.469 v 0.39 h 4.121 v -0.39 c -0.418,-0.137 -0.703,-0.293 -0.84,-0.469 -0.136,-0.156 -0.215,-0.469 -0.215,-0.996 v -14.942 c 0,-0.41 0.079,-0.742 0.208,-0.957 0.136,-0.156 0.417,-0.351 0.847,-0.41 v -0.488 h -4.89 v 0.488 c 0.593,0.098 0.886,0.371 0.886,0.664 0,0.274 -0.273,0.664 -0.801,1.27 l -12.031,13.34"
         style="fill:#231f20;fill-opacity:1;fill-rule:nonzero;stroke:none"
         id="path18" /><path
         d="m 256.898,145.371 -1.835,-3.594 -0.391,0.176 c 0.039,0.332 0.07,0.567 0.07,0.684 0,0.254 -0.363,0.566 -1.086,0.976 -1.504,0.801 -3.367,1.211 -5.574,1.211 -1.769,0 -3.273,-0.332 -4.504,-0.976 -1.23,-0.684 -1.836,-1.621 -1.836,-2.793 0,-0.489 0.149,-1.016 0.461,-1.465 0.301,-0.391 0.711,-0.703 1.25,-0.879 0.516,-0.176 1.082,-0.293 1.699,-0.371 0.614,0 1.903,-0.117 3.914,-0.176 1.7,-0.059 2.969,-0.137 3.809,-0.312 0.859,-0.137 1.594,-0.43 2.207,-0.782 0.664,-0.312 1.172,-0.898 1.543,-1.582 0.391,-0.664 0.578,-1.425 0.578,-2.246 0,-1.758 -0.723,-3.105 -2.121,-4.121 -1.68,-1.211 -3.926,-1.836 -6.719,-1.836 -1.394,0 -2.82,0.254 -4.355,0.645 -1.524,0.41 -2.91,0.976 -4.207,1.738 -0.207,0.117 -0.332,0.156 -0.41,0.156 -0.168,0 -0.43,-0.195 -0.762,-0.625 l -0.363,0.293 2.089,3.535 0.43,-0.195 c -0.039,-0.176 -0.066,-0.254 -0.086,-0.293 -0.051,-0.195 -0.07,-0.312 -0.07,-0.469 0,-0.312 0.547,-0.742 1.699,-1.328 1.895,-1.015 3.887,-1.562 5.938,-1.562 1.875,0 3.457,0.332 4.707,0.996 0.578,0.293 1.066,0.762 1.406,1.25 0.344,0.566 0.527,1.113 0.527,1.699 0,0.488 -0.156,0.996 -0.449,1.426 -0.293,0.429 -0.703,0.683 -1.172,0.898 -0.469,0.176 -0.945,0.254 -1.543,0.352 -0.547,0.019 -1.601,0.117 -3.164,0.176 -1.836,0.078 -3.125,0.175 -3.926,0.253 -0.781,0.118 -1.531,0.274 -2.246,0.528 -0.859,0.312 -1.601,0.879 -2.117,1.582 -0.566,0.762 -0.832,1.621 -0.832,2.637 0,1.796 0.82,3.183 2.441,4.238 1.653,1.035 3.75,1.562 6.309,1.562 2.336,0 4.668,-0.527 7.012,-1.562 0.383,-0.176 0.586,-0.215 0.625,-0.215 0.176,0 0.39,0.176 0.625,0.625 l 0.429,-0.254"
         style="fill:#231f20;fill-opacity:1;fill-rule:nonzero;stroke:none"
         id="path20" /><path
         d="m 263.715,136.445 v -6.953 h 11.523 c 0.469,0 0.793,0.039 0.996,0.235 0.207,0.097 0.352,0.41 0.45,0.82 h 0.449 v -3.906 h -0.449 c -0.098,0.39 -0.243,0.664 -0.43,0.879 -0.195,0.078 -0.508,0.156 -0.996,0.156 h -14.981 v 0.488 c 0.43,0.059 0.723,0.254 0.86,0.41 0.136,0.215 0.195,0.547 0.195,0.957 v 14.942 c 0,0.527 -0.059,0.84 -0.203,0.996 -0.137,0.176 -0.422,0.332 -0.852,0.469 v 0.39 h 14.883 c 0.461,0 0.781,0.098 0.977,0.254 0.195,0.137 0.343,0.391 0.429,0.859 h 0.469 v -3.964 h -0.469 c -0.086,0.449 -0.234,0.722 -0.429,0.898 -0.196,0.098 -0.528,0.176 -0.977,0.176 h -11.445 v -6.309 h 7.277 c 0.457,0 0.801,0.098 1.004,0.215 0.176,0.156 0.332,0.43 0.43,0.82 h 0.449 v -3.906 h -0.449 c -0.098,0.449 -0.254,0.723 -0.457,0.859 -0.196,0.137 -0.528,0.215 -0.977,0.215 h -7.277"
         style="fill:#231f20;fill-opacity:1;fill-rule:nonzero;stroke:none"
         id="path22" /><path
         d="m 278.695,128.262 1.875,3.984 0.43,-0.215 c -0.098,-0.332 -0.137,-0.644 -0.137,-0.742 0,-0.215 0.098,-0.351 0.313,-0.527 0.547,-0.43 1.308,-0.84 2.246,-1.094 0.957,-0.273 1.894,-0.488 2.812,-0.488 0.821,0 1.575,0.215 2.219,0.508 0.633,0.273 1.082,0.683 1.367,1.23 0.301,0.488 0.45,1.582 0.45,3.145 v 10.41 c 0,0.527 -0.059,0.84 -0.207,0.996 -0.157,0.176 -0.45,0.332 -0.84,0.469 v 0.39 h 4.472 v -0.39 c -0.41,-0.137 -0.703,-0.293 -0.82,-0.469 -0.156,-0.156 -0.223,-0.469 -0.223,-0.996 v -10.879 c 0,-1.055 -0.089,-1.914 -0.265,-2.559 -0.176,-0.683 -0.449,-1.23 -0.84,-1.738 -0.527,-0.625 -1.238,-1.094 -2.137,-1.445 -0.918,-0.352 -1.887,-0.567 -2.961,-0.567 -0.879,0 -1.914,0.117 -3.086,0.332 -1.191,0.313 -2.168,0.606 -3.066,0.938 -0.164,0.097 -0.313,0.175 -0.438,0.175 -0.265,0 -0.507,-0.195 -0.734,-0.605 l -0.43,0.137"
         style="fill:#231f20;fill-opacity:1;fill-rule:nonzero;stroke:none"
         id="path24" /><path
         d="m 308.109,146.777 c 3.313,0 5.996,-0.839 8.02,-2.636 2.176,-1.797 3.269,-4.219 3.269,-7.227 0,-1.875 -0.527,-3.633 -1.601,-5.215 -2.012,-2.91 -5.234,-4.414 -9.656,-4.414 -3.293,0 -5.969,0.879 -7.981,2.578 -2.187,1.836 -3.281,4.239 -3.281,7.168 0,1.953 0.547,3.731 1.594,5.313 1.121,1.66 2.683,2.871 4.707,3.594 1.414,0.546 3.035,0.8 4.929,0.839 m 0,-1.953 c -2.734,0 -4.91,-0.801 -6.55,-2.48 -1.438,-1.485 -2.18,-3.242 -2.18,-5.313 0,-2.129 0.742,-3.867 2.18,-5.332 1.64,-1.64 3.836,-2.519 6.582,-2.519 2.742,0 4.941,0.879 6.582,2.519 1.453,1.465 2.168,3.164 2.168,5.215 0,2.188 -0.715,3.984 -2.168,5.43 -1.653,1.64 -3.86,2.441 -6.614,2.48"
         style="fill:#231f20;fill-opacity:1;fill-rule:nonzero;stroke:none"
         id="path26" /><path
         d="m 353.305,149.082 -2.383,-4.355 -0.469,0.273 c 0.195,0.488 0.293,0.781 0.293,0.938 0,0.312 -0.41,0.664 -1.23,1.035 -2.254,1.074 -4.61,1.562 -7.11,1.562 -2.051,0 -3.836,-0.371 -5.371,-1.133 -0.722,-0.371 -1.308,-0.82 -1.726,-1.464 -0.422,-0.606 -0.637,-1.231 -0.637,-1.895 0,-0.566 0.168,-1.094 0.5,-1.563 0.34,-0.527 0.75,-0.878 1.297,-1.132 0.625,-0.254 1.308,-0.489 2.129,-0.547 0.82,-0.137 2.148,-0.215 4.004,-0.235 2.558,-0.097 4.367,-0.214 5.468,-0.351 1.094,-0.176 1.973,-0.469 2.715,-0.899 1.875,-0.996 2.824,-2.617 2.824,-4.765 0,-2.051 -0.871,-3.789 -2.578,-5.059 -1.906,-1.484 -4.492,-2.207 -7.832,-2.207 -1.926,0 -3.586,0.235 -5.031,0.606 -1.445,0.332 -3.145,1.074 -5.145,2.148 -0.539,0.254 -0.871,0.391 -0.968,0.391 -0.164,0 -0.43,-0.235 -0.801,-0.606 l -0.449,0.274 2.5,4.16 0.488,-0.274 c -0.203,-0.41 -0.32,-0.703 -0.32,-0.859 0,-0.391 0.711,-0.898 2.136,-1.68 1.27,-0.683 2.493,-1.113 3.692,-1.406 1.172,-0.312 2.441,-0.508 3.828,-0.508 2.824,0 4.961,0.645 6.406,1.856 0.977,0.859 1.457,1.836 1.457,2.968 0,1.465 -0.82,2.52 -2.5,3.047 -0.519,0.215 -1.086,0.313 -1.633,0.391 -0.605,0.059 -2.187,0.117 -4.863,0.234 -1.914,0.039 -3.426,0.196 -4.512,0.43 -1.074,0.195 -2.031,0.527 -2.89,1.035 -0.801,0.43 -1.406,1.074 -1.864,1.856 -0.46,0.781 -0.675,1.679 -0.675,2.617 0,1.66 0.605,2.969 1.777,4.18 0.898,0.82 2.141,1.523 3.691,1.933 1.563,0.567 3.282,0.762 5.149,0.762 1.531,0 2.949,-0.176 4.226,-0.488 1.309,-0.313 2.805,-0.782 4.415,-1.563 0.39,-0.117 0.625,-0.215 0.722,-0.215 0.188,0 0.449,0.215 0.801,0.684 l 0.469,-0.176"
         style="fill:#231f20;fill-opacity:1;fill-rule:nonzero;stroke:none"
         id="path28" /><path
         d="m 360.023,144.473 v -9.61 c 0,-1.445 0.11,-2.5 0.235,-3.027 0.137,-0.547 0.461,-1.074 0.957,-1.406 0.988,-0.821 2.707,-1.25 5.098,-1.25 2.687,0 4.511,0.547 5.46,1.504 0.34,0.39 0.567,0.8 0.692,1.347 0.098,0.567 0.168,1.504 0.168,2.832 v 9.61 c 0,0.507 -0.09,0.82 -0.227,0.996 -0.136,0.176 -0.41,0.332 -0.847,0.469 v 0.39 h 4.089 v -0.39 c -0.398,-0.137 -0.683,-0.293 -0.808,-0.469 -0.168,-0.156 -0.246,-0.469 -0.246,-0.996 v -10.059 c 0,-1.738 -0.137,-2.949 -0.41,-3.652 -0.489,-1.192 -1.395,-2.032 -2.684,-2.598 -1.309,-0.586 -3.098,-0.879 -5.371,-0.879 -3.274,0 -5.547,0.625 -6.867,1.836 -0.645,0.586 -1.055,1.231 -1.289,1.953 -0.176,0.664 -0.313,1.817 -0.313,3.34 v 10.059 c 0,0.527 -0.047,0.84 -0.195,0.996 -0.156,0.176 -0.449,0.332 -0.86,0.469 v 0.39 h 4.493 v -0.39 c -0.43,-0.137 -0.703,-0.293 -0.84,-0.469 -0.125,-0.176 -0.235,-0.489 -0.235,-0.996"
         style="fill:#231f20;fill-opacity:1;fill-rule:nonzero;stroke:none"
         id="path30" /><path
         d="m 382.758,136.113 v -6.679 c 0,-0.332 0.078,-0.567 0.234,-0.782 0.137,-0.156 0.391,-0.312 0.781,-0.429 v -0.547 h -4.453 v 0.547 c 0.403,0.117 0.684,0.273 0.84,0.429 0.149,0.215 0.215,0.45 0.215,0.782 v 15.293 c 0,0.312 -0.066,0.586 -0.215,0.742 -0.176,0.176 -0.437,0.293 -0.84,0.41 v 0.449 h 10.332 c 1.36,0 2.383,-0.039 3.118,-0.137 0.683,-0.156 1.316,-0.371 1.902,-0.703 0.683,-0.429 1.191,-0.996 1.582,-1.758 0.391,-0.761 0.598,-1.601 0.598,-2.539 0,-0.898 -0.207,-1.738 -0.579,-2.461 -0.39,-0.742 -0.918,-1.328 -1.621,-1.738 -0.566,-0.351 -1.211,-0.566 -1.933,-0.703 -0.684,-0.137 -1.719,-0.176 -3.067,-0.176 z m 0,1.778 h 6.574 c 1.16,0 2.07,0.078 2.606,0.136 0.566,0.118 1.035,0.313 1.464,0.567 0.782,0.508 1.153,1.386 1.153,2.636 0,1.25 -0.371,2.129 -1.153,2.637 -0.429,0.235 -0.898,0.488 -1.453,0.528 -0.539,0.097 -1.437,0.156 -2.617,0.156 h -6.574 v -6.66"
         style="fill:#231f20;fill-opacity:1;fill-rule:nonzero;stroke:none"
         id="path32" /><path
         d="m 403.246,136.445 v -6.953 h 11.516 c 0.476,0 0.801,0.039 1.004,0.235 0.187,0.097 0.332,0.41 0.429,0.82 h 0.469 v -3.906 h -0.469 c -0.097,0.39 -0.242,0.664 -0.429,0.879 -0.203,0.078 -0.528,0.156 -1.004,0.156 h -14.981 v 0.488 c 0.449,0.059 0.731,0.254 0.86,0.41 0.144,0.215 0.222,0.547 0.222,0.957 v 14.942 c 0,0.527 -0.078,0.84 -0.234,0.996 -0.137,0.176 -0.418,0.332 -0.848,0.469 v 0.39 h 14.871 c 0.481,0 0.801,0.098 0.977,0.254 0.195,0.137 0.363,0.391 0.469,0.859 h 0.441 v -3.964 h -0.441 c -0.106,0.449 -0.274,0.722 -0.469,0.898 -0.176,0.098 -0.496,0.176 -0.977,0.176 h -11.406 v -6.309 h 7.266 c 0.461,0 0.761,0.098 0.968,0.215 0.204,0.156 0.36,0.43 0.458,0.82 h 0.468 v -3.906 h -0.468 c -0.098,0.449 -0.254,0.723 -0.458,0.859 -0.207,0.137 -0.507,0.215 -0.968,0.215 h -7.266"
         style="fill:#231f20;fill-opacity:1;fill-rule:nonzero;stroke:none"
         id="path34" /><path
         d="m 423.578,136.152 v -6.621 c 0,-0.41 0.039,-0.742 0.176,-0.957 0.168,-0.156 0.469,-0.351 0.859,-0.41 v -0.488 h -4.472 v 0.488 c 0.429,0.059 0.703,0.254 0.851,0.41 0.117,0.215 0.203,0.547 0.203,0.957 v 14.942 c 0,0.527 -0.097,0.84 -0.234,0.996 -0.156,0.176 -0.418,0.332 -0.82,0.469 v 0.39 h 11.035 c 1.269,0 2.297,-0.058 3.086,-0.254 0.801,-0.136 1.523,-0.449 2.07,-0.859 1.309,-0.918 1.953,-2.285 1.953,-4.043 0,-1.426 -0.476,-2.52 -1.375,-3.359 -0.89,-0.84 -2.219,-1.368 -3.957,-1.524 l 4.688,-7.422 c 0.168,-0.273 0.332,-0.39 0.48,-0.527 0.164,-0.117 0.457,-0.137 0.84,-0.176 v -0.488 h -4.609 v 0.488 c 0.457,0.059 0.652,0.195 0.652,0.391 0,0.136 -0.125,0.371 -0.371,0.84 l -4.297,6.757 z m 0,1.817 h 7.082 c 1.153,0 2,0.058 2.586,0.078 0.547,0.117 1.055,0.293 1.426,0.488 0.898,0.488 1.328,1.367 1.328,2.559 0,1.152 -0.398,2.051 -1.23,2.636 -0.743,0.567 -2.02,0.821 -3.848,0.821 h -7.344 v -6.582"
         style="fill:#231f20;fill-opacity:1;fill-rule:nonzero;stroke:none"
         id="path36" /><path
         d="m 443.012,129.531 v 14.942 c 0,0.527 -0.059,0.84 -0.203,0.996 -0.149,0.176 -0.43,0.332 -0.871,0.469 v 0.39 h 4.531 v -0.39 c -0.449,-0.137 -0.723,-0.293 -0.86,-0.469 -0.136,-0.156 -0.234,-0.469 -0.234,-0.996 v -14.942 c 0,-0.41 0.098,-0.742 0.234,-0.957 0.137,-0.156 0.411,-0.351 0.86,-0.41 v -0.488 h -4.531 v 0.488 c 0.441,0.059 0.722,0.254 0.871,0.41 0.144,0.215 0.203,0.547 0.203,0.957"
         style="fill:#231f20;fill-opacity:1;fill-rule:nonzero;stroke:none"
         id="path38" /><path
         d="m 461.234,146.777 c 3.321,0 6.016,-0.839 8.039,-2.636 2.157,-1.797 3.25,-4.219 3.25,-7.227 0,-1.875 -0.527,-3.633 -1.601,-5.215 -2.012,-2.91 -5.215,-4.414 -9.649,-4.414 -3.3,0 -5.957,0.879 -7.988,2.578 -2.187,1.836 -3.281,4.239 -3.281,7.168 0,1.953 0.547,3.731 1.601,5.313 1.114,1.66 2.708,2.871 4.708,3.594 1.386,0.546 3.046,0.8 4.921,0.839 m 0,-1.953 c -2.714,0 -4.882,-0.801 -6.531,-2.48 -1.437,-1.485 -2.199,-3.242 -2.199,-5.313 0,-2.129 0.762,-3.867 2.199,-5.332 1.649,-1.64 3.848,-2.519 6.57,-2.519 2.735,0 4.942,0.879 6.582,2.519 1.458,1.465 2.149,3.164 2.149,5.215 0,2.188 -0.691,3.984 -2.149,5.43 -1.66,1.64 -3.855,2.441 -6.621,2.48"
         style="fill:#231f20;fill-opacity:1;fill-rule:nonzero;stroke:none"
         id="path40" /><path
         d="m 479.496,136.152 v -6.621 c 0,-0.41 0.078,-0.742 0.227,-0.957 0.136,-0.156 0.418,-0.351 0.859,-0.41 v -0.488 h -4.523 v 0.488 c 0.429,0.059 0.734,0.254 0.859,0.41 0.137,0.215 0.195,0.547 0.195,0.957 v 14.942 c 0,0.527 -0.058,0.84 -0.195,0.996 -0.137,0.176 -0.43,0.332 -0.859,0.469 v 0.39 h 11.074 c 1.25,0 2.285,-0.058 3.078,-0.254 0.801,-0.136 1.473,-0.449 2.051,-0.859 1.297,-0.918 1.941,-2.285 1.941,-4.043 0,-1.426 -0.449,-2.52 -1.328,-3.359 -0.926,-0.84 -2.227,-1.368 -3.965,-1.524 l 4.649,-7.422 c 0.175,-0.273 0.351,-0.39 0.488,-0.527 0.176,-0.117 0.469,-0.137 0.879,-0.176 v -0.488 h -4.629 v 0.488 c 0.449,0.059 0.656,0.195 0.656,0.391 0,0.136 -0.129,0.371 -0.39,0.84 l -4.309,6.757 z m 0,1.817 h 7.09 c 1.144,0 2.012,0.058 2.578,0.078 0.578,0.117 1.047,0.293 1.465,0.488 0.851,0.488 1.32,1.367 1.32,2.559 0,1.152 -0.41,2.051 -1.261,2.636 -0.723,0.567 -2.012,0.821 -3.829,0.821 h -7.363 v -6.582"
         style="fill:#231f20;fill-opacity:1;fill-rule:nonzero;stroke:none"
         id="path42" /><path
         d="m 507.426,129.531 v 14.942 c 0,0.507 -0.059,0.82 -0.184,0.996 -0.129,0.176 -0.429,0.332 -0.859,0.469 v 0.39 h 9.402 c 2.52,0 4.426,-0.293 5.656,-0.84 1.532,-0.761 2.723,-2.011 3.582,-3.691 0.762,-1.504 1.153,-3.106 1.153,-4.766 0,-1.992 -0.496,-3.769 -1.524,-5.429 -0.839,-1.446 -1.941,-2.422 -3.269,-3.047 -1.32,-0.606 -3.195,-0.879 -5.598,-0.879 h -9.402 v 0.488 c 0.43,0.059 0.73,0.254 0.859,0.41 0.125,0.215 0.184,0.547 0.184,0.957 m 2.383,-0.039 h 5.851 c 2.215,0 3.836,0.332 4.871,0.938 1.094,0.644 1.953,1.64 2.52,3.086 0.422,1.035 0.625,2.246 0.625,3.515 0,2.246 -0.594,4.102 -1.738,5.469 -0.665,0.742 -1.446,1.27 -2.403,1.582 -0.957,0.313 -2.246,0.469 -3.875,0.469 h -5.851 v -15.059"
         style="fill:#231f20;fill-opacity:1;fill-rule:nonzero;stroke:none"
         id="path44" /><path
         d="m 533.141,136.445 v -6.953 h 11.531 c 0.48,0 0.801,0.039 0.996,0.235 0.195,0.097 0.352,0.41 0.449,0.82 h 0.442 v -3.906 h -0.442 c -0.097,0.39 -0.254,0.664 -0.429,0.879 -0.196,0.078 -0.528,0.156 -1.016,0.156 h -14.981 v 0.488 c 0.469,0.059 0.743,0.254 0.879,0.41 0.129,0.215 0.215,0.547 0.215,0.957 v 14.942 c 0,0.527 -0.086,0.84 -0.234,0.996 -0.137,0.176 -0.391,0.332 -0.86,0.469 v 0.39 h 14.883 c 0.469,0 0.801,0.098 0.969,0.254 0.223,0.137 0.34,0.391 0.469,0.859 h 0.449 v -3.964 h -0.449 c -0.129,0.449 -0.246,0.722 -0.469,0.898 -0.168,0.098 -0.52,0.176 -0.969,0.176 h -11.433 v -6.309 h 7.273 c 0.449,0 0.781,0.098 0.996,0.215 0.195,0.156 0.332,0.43 0.43,0.82 h 0.48 v -3.906 h -0.48 c -0.098,0.449 -0.235,0.723 -0.438,0.859 -0.226,0.137 -0.539,0.215 -0.988,0.215 h -7.273"
         style="fill:#231f20;fill-opacity:1;fill-rule:nonzero;stroke:none"
         id="path46" /><path
         d="m 560.141,129.688 v 18.789 c 0,0.449 -0.098,0.781 -0.235,0.937 -0.125,0.274 -0.39,0.371 -0.867,0.508 v 0.488 h 4.774 v -0.488 c -0.43,-0.156 -0.704,-0.254 -0.821,-0.508 -0.183,-0.156 -0.254,-0.488 -0.254,-0.937 v -18.789 c 0,-0.508 0.071,-0.821 0.235,-1.016 0.129,-0.176 0.39,-0.332 0.84,-0.449 v -0.547 h -4.774 v 0.547 c 0.496,0.117 0.762,0.273 0.887,0.449 0.137,0.195 0.215,0.508 0.215,1.016"
         style="fill:#231f20;fill-opacity:1;fill-rule:nonzero;stroke:none"
         id="path48" /><path
         d="m 571.371,143.438 v -13.907 c 0,-0.41 0.098,-0.742 0.188,-0.957 0.164,-0.156 0.457,-0.351 0.886,-0.41 v -0.488 h -4.101 v 0.488 c 0.41,0.059 0.703,0.254 0.82,0.41 0.137,0.215 0.227,0.547 0.227,0.957 v 14.942 c 0,0.527 -0.09,0.84 -0.227,0.996 -0.144,0.176 -0.41,0.332 -0.82,0.469 v 0.39 h 6.015 v -0.39 c -0.546,-0.235 -0.82,-0.508 -0.82,-0.899 0,-0.332 0.176,-0.684 0.645,-1.211 l 10.996,-12.344 v 12.989 c 0,0.527 -0.098,0.84 -0.254,0.996 -0.137,0.176 -0.41,0.332 -0.821,0.469 v 0.39 h 4.114 v -0.39 c -0.461,-0.137 -0.735,-0.293 -0.852,-0.469 -0.156,-0.156 -0.254,-0.469 -0.254,-0.996 v -14.942 c 0,-0.41 0.098,-0.742 0.254,-0.957 0.098,-0.156 0.391,-0.351 0.852,-0.41 v -0.488 h -4.875 v 0.488 c 0.578,0.098 0.859,0.371 0.859,0.664 0,0.274 -0.242,0.664 -0.82,1.27 l -12.012,13.34"
         style="fill:#231f20;fill-opacity:1;fill-rule:nonzero;stroke:none"
         id="path50" /><path
         d="m 601.176,130.352 5.996,13.691 c 0.168,0.352 0.254,0.664 0.254,0.957 0,0.508 -0.332,0.82 -0.977,0.938 v 0.39 h 4.629 v -0.39 c -0.496,-0.157 -0.848,-0.313 -1.074,-0.625 -0.184,-0.274 -0.508,-0.899 -0.945,-1.895 l -5.696,-12.969 c -0.293,-0.625 -0.41,-1.054 -0.41,-1.347 0,-0.547 0.332,-0.879 0.938,-0.938 v -0.488 h -5.75 v 0.488 c 0.593,0.078 0.925,0.391 0.925,0.938 0,0.293 -0.105,0.722 -0.39,1.347 l -5.879,12.969 c -0.449,0.996 -0.762,1.641 -1.004,1.914 -0.227,0.293 -0.578,0.449 -1.008,0.606 v 0.39 h 5.117 v -0.39 c -0.664,-0.137 -0.976,-0.43 -0.976,-0.938 0,-0.273 0.078,-0.605 0.265,-0.957 l 5.985,-13.691"
         style="fill:#231f20;fill-opacity:1;fill-rule:nonzero;stroke:none"
         id="path52" /><path
         d="m 617.074,136.445 v -6.953 h 11.582 c 0.449,0 0.774,0.039 0.938,0.235 0.215,0.097 0.351,0.41 0.465,0.82 h 0.468 v -3.906 h -0.468 c -0.114,0.39 -0.25,0.664 -0.465,0.879 -0.164,0.078 -0.469,0.156 -0.938,0.156 h -15 v 0.488 c 0.41,0.059 0.696,0.254 0.86,0.41 0.097,0.215 0.195,0.547 0.195,0.957 v 14.942 c 0,0.527 -0.098,0.84 -0.215,0.996 -0.164,0.176 -0.437,0.332 -0.84,0.469 v 0.39 h 14.856 c 0.457,0 0.781,0.098 1.004,0.254 0.156,0.137 0.332,0.391 0.41,0.859 h 0.445 v -3.964 h -0.445 c -0.078,0.449 -0.254,0.722 -0.41,0.898 -0.223,0.098 -0.547,0.176 -1.016,0.176 h -11.426 v -6.309 h 7.297 c 0.469,0 0.809,0.098 0.984,0.215 0.176,0.156 0.325,0.43 0.469,0.82 h 0.391 v -3.906 h -0.391 c -0.144,0.449 -0.293,0.723 -0.508,0.859 -0.156,0.137 -0.476,0.215 -0.945,0.215 h -7.297"
         style="fill:#231f20;fill-opacity:1;fill-rule:nonzero;stroke:none"
         id="path54" /><path
         d="m 651.719,145.371 -1.836,-3.594 -0.371,0.176 c 0.039,0.332 0.039,0.567 0.039,0.684 0,0.254 -0.332,0.566 -1.055,0.976 -1.523,0.801 -3.398,1.211 -5.605,1.211 -1.778,0 -3.262,-0.332 -4.512,-0.976 -1.231,-0.684 -1.836,-1.621 -1.836,-2.793 0,-0.489 0.156,-1.016 0.469,-1.465 0.312,-0.391 0.722,-0.703 1.269,-0.879 0.508,-0.176 1.074,-0.293 1.66,-0.371 0.606,0 1.934,-0.117 3.946,-0.176 1.66,-0.059 2.929,-0.137 3.808,-0.312 0.86,-0.137 1.582,-0.43 2.207,-0.782 0.645,-0.312 1.172,-0.898 1.563,-1.582 0.351,-0.664 0.566,-1.425 0.566,-2.246 0,-1.758 -0.703,-3.105 -2.129,-4.121 -1.679,-1.211 -3.925,-1.836 -6.718,-1.836 -1.407,0 -2.852,0.254 -4.356,0.645 -1.504,0.41 -2.91,0.976 -4.238,1.738 -0.156,0.117 -0.293,0.156 -0.41,0.156 -0.157,0 -0.41,-0.195 -0.723,-0.625 l -0.391,0.293 2.129,3.535 0.391,-0.195 c -0.039,-0.176 -0.039,-0.254 -0.059,-0.293 -0.058,-0.195 -0.097,-0.312 -0.097,-0.469 0,-0.312 0.566,-0.742 1.699,-1.328 1.934,-1.015 3.906,-1.562 5.937,-1.562 1.895,0 3.438,0.332 4.668,0.996 0.606,0.293 1.133,0.762 1.465,1.25 0.352,0.566 0.528,1.113 0.528,1.699 0,0.488 -0.157,0.996 -0.45,1.426 -0.312,0.429 -0.664,0.683 -1.211,0.898 -0.41,0.176 -0.957,0.254 -1.503,0.352 -0.547,0.019 -1.622,0.117 -3.184,0.176 -1.816,0.078 -3.125,0.175 -3.906,0.253 -0.801,0.118 -1.524,0.274 -2.227,0.528 -0.879,0.312 -1.601,0.879 -2.129,1.582 -0.566,0.762 -0.82,1.621 -0.82,2.637 0,1.796 0.781,3.183 2.402,4.238 1.641,1.035 3.77,1.562 6.328,1.562 2.344,0 4.668,-0.527 7.012,-1.562 0.371,-0.176 0.547,-0.215 0.625,-0.215 0.156,0 0.41,0.176 0.645,0.625 l 0.41,-0.254"
         style="fill:#231f20;fill-opacity:1;fill-rule:nonzero;stroke:none"
         id="path56" /><path
         d="m 664.336,144.414 v -14.883 c 0,-0.41 0.098,-0.742 0.234,-0.957 0.137,-0.156 0.41,-0.351 0.84,-0.41 v -0.488 h -4.512 v 0.488 c 0.43,0.059 0.723,0.254 0.879,0.41 0.118,0.215 0.215,0.547 0.215,0.957 v 14.883 h -6.152 c -0.41,0 -0.762,-0.039 -0.918,-0.195 -0.234,-0.137 -0.352,-0.43 -0.449,-0.801 h -0.489 v 3.887 h 0.489 c 0.097,-0.41 0.215,-0.703 0.449,-0.821 0.156,-0.195 0.508,-0.234 0.918,-0.234 h 14.609 c 0.449,0 0.801,0.039 0.977,0.234 0.215,0.118 0.351,0.411 0.469,0.821 h 0.429 v -3.887 h -0.429 c -0.118,0.371 -0.274,0.664 -0.469,0.801 -0.196,0.156 -0.528,0.195 -0.977,0.195 h -6.113"
         style="fill:#231f20;fill-opacity:1;fill-rule:nonzero;stroke:none"
         id="path58" /><path
         d="m 675.664,129.531 v 14.942 c 0,0.527 -0.098,0.84 -0.215,0.996 -0.176,0.176 -0.449,0.332 -0.859,0.469 v 0.39 h 4.531 v -0.39 c -0.449,-0.137 -0.762,-0.293 -0.84,-0.469 -0.176,-0.156 -0.254,-0.469 -0.254,-0.996 v -14.942 c 0,-0.41 0.078,-0.742 0.254,-0.957 0.078,-0.156 0.391,-0.351 0.84,-0.41 v -0.488 h -4.531 v 0.488 c 0.41,0.059 0.683,0.254 0.859,0.41 0.117,0.215 0.215,0.547 0.215,0.957"
         style="fill:#231f20;fill-opacity:1;fill-rule:nonzero;stroke:none"
         id="path60" /><path
         d="m 703.184,144.629 -2.305,-3.691 -0.391,0.234 c 0.137,0.391 0.215,0.664 0.215,0.762 0,0.293 -0.566,0.781 -1.582,1.386 -1.738,0.977 -3.574,1.407 -5.469,1.407 -2.422,0 -4.336,-0.645 -5.918,-1.973 -1.699,-1.524 -2.539,-3.477 -2.539,-5.84 0,-2.246 0.723,-4.082 2.305,-5.527 1.602,-1.465 3.691,-2.207 6.23,-2.207 1.27,0 2.54,0.234 3.711,0.644 1.153,0.332 2.149,0.899 2.93,1.563 v 3.457 h -4.199 c -0.469,0 -0.82,-0.059 -0.957,-0.235 -0.215,-0.136 -0.371,-0.39 -0.488,-0.82 h -0.43 v 3.926 h 0.43 c 0.117,-0.43 0.273,-0.703 0.488,-0.84 0.137,-0.156 0.488,-0.234 0.957,-0.234 h 7.363 v -0.45 c -0.43,-0.058 -0.683,-0.214 -0.859,-0.41 -0.117,-0.234 -0.215,-0.566 -0.215,-0.996 v -1.933 c 0,-0.508 0.098,-0.821 0.215,-0.977 0.176,-0.215 0.429,-0.391 0.859,-0.488 v -0.352 c -2.871,-2.48 -6.25,-3.75 -10.117,-3.75 -2.969,0 -5.43,0.84 -7.363,2.442 -1.075,0.898 -1.836,1.953 -2.403,3.164 -0.644,1.347 -0.957,2.656 -0.957,4.082 0,2.09 0.625,3.984 1.895,5.644 1.113,1.485 2.578,2.598 4.453,3.321 1.426,0.488 2.93,0.742 4.531,0.742 1.387,0 2.637,-0.098 3.789,-0.45 1.114,-0.351 2.481,-0.937 4.082,-1.835 0.235,-0.118 0.45,-0.196 0.528,-0.196 0.117,0 0.41,0.215 0.8,0.664 l 0.411,-0.234"
         style="fill:#231f20;fill-opacity:1;fill-rule:nonzero;stroke:none"
         id="path62" /><path
         d="m 719.824,132.969 h -9.765 l -1.426,-3.145 c -0.156,-0.39 -0.293,-0.683 -0.293,-0.918 0,-0.351 0.312,-0.625 0.879,-0.742 v -0.488 h -4.59 v 0.488 c 0.488,0.059 0.801,0.215 1.074,0.488 0.215,0.254 0.508,0.821 0.86,1.543 l 6.152,13.496 c 0.351,0.704 0.566,1.25 0.566,1.524 0,0.41 -0.273,0.625 -0.859,0.723 v 0.39 h 5.41 v -0.39 c -0.527,-0.157 -0.801,-0.372 -0.801,-0.723 0,-0.215 0.215,-0.82 0.664,-1.797 l 5.938,-12.969 c 0.39,-0.801 0.742,-1.386 1.015,-1.699 0.293,-0.332 0.665,-0.527 1.075,-0.586 v -0.488 h -4.864 v 0.488 c 0.547,0.059 0.782,0.313 0.782,0.566 0,0.137 -0.118,0.45 -0.43,1.094 z m -0.82,1.816 -4.063,9.121 -4.101,-9.121 z"
         style="fill:#231f20;fill-opacity:1;fill-rule:nonzero;stroke:none"
         id="path64" /><path
         d="m 747.578,145 -2.051,-3.613 -0.371,0.234 c 0.059,0.293 0.059,0.508 0.059,0.703 0,0.215 -0.215,0.469 -0.645,0.801 -1.797,1.133 -3.867,1.699 -6.308,1.699 -2.364,0 -4.317,-0.664 -5.918,-1.972 -1.758,-1.426 -2.617,-3.34 -2.617,-5.684 0,-2.578 0.976,-4.609 2.91,-6.113 1.543,-1.231 3.437,-1.875 5.566,-1.875 2.363,0 4.492,0.722 6.309,2.168 0.703,0.566 1.015,0.976 1.015,1.211 0,0.175 -0.058,0.468 -0.312,0.859 l 0.41,0.215 2.637,-3.281 -0.371,-0.313 c -0.411,0.332 -0.664,0.488 -0.801,0.488 -0.098,0 -0.293,-0.078 -0.41,-0.175 -1.407,-1.114 -2.715,-1.856 -4.121,-2.364 -1.387,-0.449 -2.95,-0.703 -4.61,-0.703 -2.988,0 -5.39,0.84 -7.324,2.422 -0.996,0.742 -1.797,1.699 -2.324,2.832 -0.781,1.387 -1.094,2.91 -1.094,4.531 0,3.047 1.172,5.489 3.555,7.344 1.992,1.563 4.492,2.363 7.5,2.363 2.656,0 5.234,-0.664 7.617,-2.011 0.273,-0.078 0.41,-0.098 0.547,-0.098 0.215,0 0.469,0.137 0.722,0.547 l 0.43,-0.215"
         style="fill:#231f20;fill-opacity:1;fill-rule:nonzero;stroke:none"
         id="path66" /><path
         d="m 752.754,129.531 v 14.942 c 0,0.527 -0.059,0.84 -0.254,0.996 -0.098,0.176 -0.391,0.332 -0.82,0.469 v 0.39 h 4.511 v -0.39 c -0.429,-0.137 -0.703,-0.293 -0.878,-0.469 -0.098,-0.156 -0.196,-0.469 -0.196,-0.996 v -14.942 c 0,-0.41 0.098,-0.742 0.196,-0.957 0.175,-0.156 0.449,-0.351 0.878,-0.41 v -0.488 h -4.511 v 0.488 c 0.429,0.059 0.722,0.254 0.82,0.41 0.195,0.215 0.254,0.547 0.254,0.957"
         style="fill:#231f20;fill-opacity:1;fill-rule:nonzero;stroke:none"
         id="path68" /><path
         d="m 770.977,146.777 c 3.3,0 5.996,-0.839 8.007,-2.636 2.207,-1.797 3.262,-4.219 3.262,-7.227 0,-1.875 -0.508,-3.633 -1.601,-5.215 -1.973,-2.91 -5.196,-4.414 -9.629,-4.414 -3.321,0 -5.977,0.879 -8.028,2.578 -2.148,1.836 -3.261,4.239 -3.261,7.168 0,1.953 0.566,3.731 1.582,5.313 1.152,1.66 2.734,2.871 4.726,3.594 1.387,0.546 3.067,0.8 4.942,0.839 m 0,-1.953 c -2.715,0 -4.942,-0.801 -6.524,-2.48 -1.504,-1.485 -2.187,-3.242 -2.187,-5.313 0,-2.129 0.683,-3.867 2.187,-5.332 1.582,-1.64 3.809,-2.519 6.563,-2.519 2.695,0 4.882,0.879 6.562,2.519 1.426,1.465 2.168,3.164 2.168,5.215 0,2.188 -0.742,3.984 -2.168,5.43 -1.68,1.64 -3.887,2.441 -6.601,2.48"
         style="fill:#231f20;fill-opacity:1;fill-rule:nonzero;stroke:none"
         id="path70" /><path
         d="m 788.809,143.438 v -13.907 c 0,-0.41 0.117,-0.742 0.254,-0.957 0.097,-0.156 0.39,-0.351 0.859,-0.41 v -0.488 h -4.121 v 0.488 c 0.429,0.059 0.722,0.254 0.82,0.41 0.176,0.215 0.254,0.547 0.254,0.957 v 14.942 c 0,0.527 -0.078,0.84 -0.254,0.996 -0.117,0.176 -0.391,0.332 -0.82,0.469 v 0.39 h 6.054 v -0.39 c -0.566,-0.235 -0.859,-0.508 -0.859,-0.899 0,-0.332 0.215,-0.684 0.625,-1.211 l 11.035,-12.344 v 12.989 c 0,0.527 -0.097,0.84 -0.254,0.996 -0.117,0.176 -0.39,0.332 -0.839,0.469 v 0.39 h 4.101 v -0.39 c -0.449,-0.137 -0.723,-0.293 -0.801,-0.469 -0.215,-0.156 -0.273,-0.469 -0.273,-0.996 v -14.942 c 0,-0.41 0.058,-0.742 0.254,-0.957 0.078,-0.156 0.371,-0.351 0.82,-0.41 v -0.488 h -4.883 v 0.488 c 0.625,0.098 0.879,0.371 0.879,0.664 0,0.274 -0.254,0.664 -0.82,1.27 l -12.031,13.34"
         style="fill:#231f20;fill-opacity:1;fill-rule:nonzero;stroke:none"
         id="path72" /><path
         d="m 813.086,136.445 v -6.953 h 11.562 c 0.43,0 0.762,0.039 1.016,0.235 0.156,0.097 0.332,0.41 0.41,0.82 h 0.469 v -3.906 h -0.469 c -0.078,0.39 -0.234,0.664 -0.41,0.879 -0.234,0.078 -0.547,0.156 -0.996,0.156 h -15.02 v 0.488 c 0.469,0.059 0.743,0.254 0.899,0.41 0.117,0.215 0.195,0.547 0.195,0.957 v 14.942 c 0,0.527 -0.097,0.84 -0.215,0.996 -0.156,0.176 -0.449,0.332 -0.879,0.469 v 0.39 h 14.883 c 0.469,0 0.821,0.098 0.996,0.254 0.196,0.137 0.313,0.391 0.469,0.859 h 0.41 v -3.964 h -0.41 c -0.156,0.449 -0.273,0.722 -0.469,0.898 -0.175,0.098 -0.527,0.176 -0.996,0.176 h -11.445 v -6.309 h 7.285 c 0.488,0 0.82,0.098 0.996,0.215 0.235,0.156 0.332,0.43 0.469,0.82 h 0.41 v -3.906 h -0.41 c -0.137,0.449 -0.234,0.723 -0.469,0.859 -0.195,0.137 -0.527,0.215 -0.996,0.215 h -7.285"
         style="fill:#231f20;fill-opacity:1;fill-rule:nonzero;stroke:none"
         id="path74" /><path
         d="m 847.754,145.371 -1.856,-3.594 -0.371,0.176 c 0.059,0.332 0.059,0.567 0.059,0.684 0,0.254 -0.332,0.566 -1.055,0.976 -1.543,0.801 -3.379,1.211 -5.586,1.211 -1.816,0 -3.261,-0.332 -4.511,-0.976 -1.231,-0.684 -1.817,-1.621 -1.817,-2.793 0,-0.489 0.098,-1.016 0.41,-1.465 0.313,-0.391 0.723,-0.703 1.25,-0.879 0.567,-0.176 1.114,-0.293 1.719,-0.371 0.606,0 1.914,-0.117 3.926,-0.176 1.66,-0.059 2.949,-0.137 3.789,-0.312 0.879,-0.137 1.582,-0.43 2.187,-0.782 0.645,-0.312 1.192,-0.898 1.582,-1.582 0.352,-0.664 0.567,-1.425 0.567,-2.246 0,-1.758 -0.703,-3.105 -2.149,-4.121 -1.64,-1.211 -3.886,-1.836 -6.679,-1.836 -1.406,0 -2.813,0.254 -4.336,0.645 -1.563,0.41 -2.93,0.976 -4.258,1.738 -0.195,0.117 -0.312,0.156 -0.41,0.156 -0.137,0 -0.391,-0.195 -0.703,-0.625 l -0.391,0.293 2.09,3.535 0.41,-0.195 c -0.039,-0.176 -0.058,-0.254 -0.078,-0.293 -0.078,-0.195 -0.078,-0.312 -0.078,-0.469 0,-0.312 0.566,-0.742 1.699,-1.328 1.914,-1.015 3.926,-1.562 5.957,-1.562 1.875,0 3.399,0.332 4.649,0.996 0.585,0.293 1.132,0.762 1.464,1.25 0.352,0.566 0.528,1.113 0.528,1.699 0,0.488 -0.176,0.996 -0.469,1.426 -0.313,0.429 -0.684,0.683 -1.172,0.898 -0.43,0.176 -0.957,0.254 -1.504,0.352 -0.547,0.019 -1.621,0.117 -3.183,0.176 -1.817,0.078 -3.145,0.175 -3.946,0.253 -0.781,0.118 -1.523,0.274 -2.187,0.528 -0.938,0.312 -1.602,0.879 -2.207,1.582 -0.528,0.762 -0.801,1.621 -0.801,2.637 0,1.796 0.801,3.183 2.422,4.238 1.68,1.035 3.75,1.562 6.308,1.562 2.383,0 4.688,-0.527 7.071,-1.562 0.371,-0.176 0.527,-0.215 0.586,-0.215 0.175,0 0.41,0.176 0.644,0.625 l 0.43,-0.254"
         style="fill:#231f20;fill-opacity:1;fill-rule:nonzero;stroke:none"
         id="path76" /><path
         d="m 884.102,148.477 -2.461,-4.102 -0.43,0.293 c 0.059,0.332 0.117,0.566 0.117,0.703 0,0.508 -0.683,1.055 -2.109,1.777 -1.953,0.977 -4.082,1.387 -6.426,1.387 -3.086,0 -5.625,-0.84 -7.559,-2.558 -1.953,-1.758 -2.89,-4.043 -2.89,-6.817 0,-2.754 0.976,-5.058 3.047,-6.894 1.992,-1.817 4.414,-2.735 7.324,-2.735 2.832,0 5.332,0.879 7.5,2.5 0.957,0.762 1.426,1.25 1.426,1.563 0,0.195 -0.059,0.449 -0.274,0.801 l 0.41,0.312 2.969,-3.613 -0.41,-0.332 c -0.332,0.312 -0.566,0.429 -0.781,0.429 -0.078,0 -0.352,-0.117 -0.645,-0.371 -0.996,-0.722 -1.875,-1.328 -2.539,-1.699 -0.683,-0.371 -1.387,-0.703 -2.207,-0.957 -1.641,-0.586 -3.496,-0.879 -5.449,-0.879 -3.809,0 -6.934,1.055 -9.375,3.164 -2.5,2.266 -3.77,5.098 -3.77,8.594 0,2.754 0.821,5.059 2.403,7.109 2.441,3.106 6.113,4.688 11.074,4.688 3.203,0 6.367,-0.84 9.433,-2.617 0.196,-0.078 0.352,-0.098 0.391,-0.098 0.156,0 0.43,0.156 0.801,0.625 l 0.43,-0.273"
         style="fill:#231f20;fill-opacity:1;fill-rule:nonzero;stroke:none"
         id="path78" /><path
         d="m 889.59,129.531 v 14.942 c 0,0.527 -0.059,0.84 -0.176,0.996 -0.176,0.176 -0.449,0.332 -0.879,0.469 v 0.39 h 4.512 v -0.39 c -0.391,-0.137 -0.703,-0.293 -0.859,-0.469 -0.157,-0.156 -0.176,-0.469 -0.176,-0.996 v -14.942 c 0,-0.41 0.019,-0.742 0.176,-0.957 0.156,-0.156 0.468,-0.351 0.859,-0.41 v -0.488 h -4.512 v 0.488 c 0.43,0.059 0.703,0.254 0.879,0.41 0.117,0.215 0.176,0.547 0.176,0.957"
         style="fill:#231f20;fill-opacity:1;fill-rule:nonzero;stroke:none"
         id="path80" /><path
         d="m 900.527,136.445 v -6.953 h 11.524 c 0.449,0 0.781,0.039 0.996,0.235 0.176,0.097 0.332,0.41 0.449,0.82 h 0.469 v -3.906 h -0.469 c -0.117,0.39 -0.273,0.664 -0.449,0.879 -0.215,0.078 -0.547,0.156 -0.977,0.156 h -15 v 0.488 c 0.41,0.059 0.703,0.254 0.879,0.41 0.098,0.215 0.176,0.547 0.176,0.957 v 14.942 c 0,0.527 -0.078,0.84 -0.195,0.996 -0.176,0.176 -0.45,0.332 -0.86,0.469 v 0.39 h 14.844 c 0.508,0 0.82,0.098 0.996,0.254 0.215,0.137 0.332,0.391 0.449,0.859 h 0.43 v -3.964 h -0.43 c -0.117,0.449 -0.234,0.722 -0.449,0.898 -0.176,0.098 -0.488,0.176 -0.996,0.176 h -11.387 v -6.309 h 7.246 c 0.508,0 0.821,0.098 0.957,0.215 0.235,0.156 0.352,0.43 0.508,0.82 h 0.43 v -3.906 h -0.43 c -0.156,0.449 -0.273,0.723 -0.527,0.859 -0.137,0.137 -0.449,0.215 -0.938,0.215 h -7.246"
         style="fill:#231f20;fill-opacity:1;fill-rule:nonzero;stroke:none"
         id="path82" /><path
         d="m 920.43,143.438 v -13.907 c 0,-0.41 0.097,-0.742 0.254,-0.957 0.097,-0.156 0.39,-0.351 0.82,-0.41 v -0.488 h -4.102 v 0.488 c 0.469,0.059 0.743,0.254 0.84,0.41 0.156,0.215 0.254,0.547 0.254,0.957 v 14.942 c 0,0.527 -0.098,0.84 -0.254,0.996 -0.117,0.176 -0.39,0.332 -0.84,0.469 v 0.39 h 6.094 v -0.39 c -0.605,-0.235 -0.859,-0.508 -0.859,-0.899 0,-0.332 0.176,-0.684 0.625,-1.211 l 10.996,-12.344 v 12.989 c 0,0.527 -0.078,0.84 -0.274,0.996 -0.078,0.176 -0.351,0.332 -0.8,0.469 v 0.39 h 4.101 v -0.39 c -0.449,-0.137 -0.722,-0.293 -0.82,-0.469 -0.195,-0.156 -0.274,-0.469 -0.274,-0.996 v -14.942 c 0,-0.41 0.059,-0.742 0.274,-0.957 0.078,-0.156 0.371,-0.351 0.82,-0.41 v -0.488 h -4.863 v 0.488 c 0.586,0.098 0.859,0.371 0.859,0.664 0,0.274 -0.254,0.664 -0.84,1.27 l -12.011,13.34"
         style="fill:#231f20;fill-opacity:1;fill-rule:nonzero;stroke:none"
         id="path84" /><path
         d="m 949.902,144.414 v -14.883 c 0,-0.41 0.059,-0.742 0.176,-0.957 0.156,-0.156 0.449,-0.351 0.899,-0.41 v -0.488 h -4.512 v 0.488 c 0.449,0.059 0.703,0.254 0.84,0.41 0.136,0.215 0.234,0.547 0.234,0.957 v 14.883 h -6.094 c -0.527,0 -0.82,-0.039 -1.015,-0.195 -0.176,-0.137 -0.313,-0.43 -0.45,-0.801 h -0.429 v 3.887 h 0.429 c 0.137,-0.41 0.274,-0.703 0.45,-0.821 0.195,-0.195 0.488,-0.234 1.015,-0.234 h 14.571 c 0.429,0 0.761,0.039 0.996,0.234 0.136,0.118 0.332,0.411 0.41,0.821 h 0.449 v -3.887 h -0.449 c -0.078,0.371 -0.274,0.664 -0.43,0.801 -0.215,0.156 -0.566,0.195 -0.976,0.195 h -6.114"
         style="fill:#231f20;fill-opacity:1;fill-rule:nonzero;stroke:none"
         id="path86" /><path
         d="m 961.172,129.531 v 14.942 c 0,0.527 -0.02,0.84 -0.156,0.996 -0.176,0.176 -0.469,0.332 -0.84,0.469 v 0.39 h 4.433 v -0.39 c -0.351,-0.137 -0.644,-0.293 -0.82,-0.469 -0.117,-0.156 -0.176,-0.469 -0.176,-0.996 v -14.942 c 0,-0.41 0.059,-0.742 0.176,-0.957 0.176,-0.156 0.469,-0.351 0.82,-0.41 v -0.488 h -4.433 v 0.488 c 0.371,0.059 0.664,0.254 0.84,0.41 0.136,0.215 0.156,0.547 0.156,0.957 m 5.273,23.672 v -0.39 c -0.371,-0.02 -0.664,-0.254 -0.898,-0.508 l -2.149,-2.891 c -0.058,-0.019 -0.058,-0.176 -0.058,-0.312 0,-0.118 0.078,-0.235 0.332,-0.235 h 0.039 v -0.39 h -2.871 v 0.39 c 0.293,0 0.41,0.039 0.547,0.156 0.078,0.079 0.156,0.196 0.332,0.43 l 1.269,2.774 c 0.039,0.019 0.039,0.117 0.039,0.195 0,0.176 -0.156,0.371 -0.468,0.391 v 0.39 h 3.886"
         style="fill:#231f20;fill-opacity:1;fill-rule:nonzero;stroke:none"
         id="path88" /><path
         d="m 972.09,136.445 v -6.914 c 0,-0.41 0.117,-0.742 0.234,-0.957 0.156,-0.156 0.43,-0.351 0.801,-0.41 v -0.488 h -4.434 v 0.488 c 0.372,0.059 0.645,0.254 0.84,0.41 0.117,0.215 0.176,0.547 0.176,0.957 v 14.942 c 0,0.527 -0.059,0.84 -0.176,0.996 -0.195,0.176 -0.468,0.332 -0.84,0.469 v 0.39 h 15.157 c 0.429,0 0.742,0.098 0.976,0.254 0.156,0.137 0.313,0.391 0.41,0.859 h 0.489 v -3.964 h -0.489 c -0.097,0.449 -0.254,0.722 -0.41,0.898 -0.234,0.098 -0.547,0.176 -0.996,0.176 H 972.09 v -6.289 h 7.676 c 0.429,0 0.761,0.078 0.957,0.215 0.156,0.156 0.332,0.429 0.429,0.82 h 0.469 v -3.906 h -0.469 c -0.097,0.429 -0.273,0.722 -0.429,0.839 -0.196,0.176 -0.528,0.215 -0.957,0.215 h -7.676"
         style="fill:#231f20;fill-opacity:1;fill-rule:nonzero;stroke:none"
         id="path90" /><path
         d="m 989.863,129.531 v 14.942 c 0,0.527 -0.097,0.84 -0.273,0.996 -0.098,0.176 -0.371,0.332 -0.84,0.469 v 0.39 h 4.551 v -0.39 c -0.449,-0.137 -0.742,-0.293 -0.899,-0.469 -0.117,-0.156 -0.214,-0.469 -0.214,-0.996 v -14.942 c 0,-0.41 0.097,-0.742 0.214,-0.957 0.157,-0.156 0.45,-0.351 0.899,-0.41 v -0.488 h -4.551 v 0.488 c 0.469,0.059 0.742,0.254 0.84,0.41 0.176,0.215 0.273,0.547 0.273,0.957"
         style="fill:#231f20;fill-opacity:1;fill-rule:nonzero;stroke:none"
         id="path92" /><path
         d="m 1017.25,145 -2.09,-3.613 -0.37,0.234 c 0.03,0.293 0.09,0.508 0.09,0.703 0,0.215 -0.25,0.469 -0.7,0.801 -1.76,1.133 -3.85,1.699 -6.29,1.699 -2.32,0 -4.3,-0.664 -5.88,-1.972 -1.78,-1.426 -2.674,-3.34 -2.674,-5.684 0,-2.578 0.954,-4.609 2.934,-6.113 1.54,-1.231 3.39,-1.875 5.58,-1.875 2.36,0 4.49,0.722 6.31,2.168 0.66,0.566 1.02,0.976 1.02,1.211 0,0.175 -0.04,0.468 -0.28,0.859 l 0.37,0.215 2.64,-3.281 -0.37,-0.313 c -0.41,0.332 -0.68,0.488 -0.84,0.488 -0.08,0 -0.24,-0.078 -0.37,-0.175 -1.41,-1.114 -2.78,-1.856 -4.12,-2.364 -1.39,-0.449 -2.91,-0.703 -4.63,-0.703 -2.97,0 -5.43,0.84 -7.31,2.422 -0.973,0.742 -1.754,1.699 -2.34,2.832 -0.762,1.387 -1.114,2.91 -1.114,4.531 0,3.047 1.231,5.489 3.574,7.344 2.03,1.563 4.53,2.363 7.5,2.363 2.68,0 5.24,-0.664 7.66,-2.011 0.23,-0.078 0.37,-0.098 0.54,-0.098 0.2,0 0.43,0.137 0.73,0.547 l 0.43,-0.215"
         style="fill:#231f20;fill-opacity:1;fill-rule:nonzero;stroke:none"
         id="path94" /><path
         d="m 1034.59,132.969 h -9.75 l -1.44,-3.145 c -0.14,-0.39 -0.26,-0.683 -0.26,-0.918 0,-0.351 0.28,-0.625 0.84,-0.742 v -0.488 h -4.57 v 0.488 c 0.45,0.059 0.79,0.215 1.08,0.488 0.23,0.254 0.53,0.821 0.88,1.543 l 6.13,13.496 c 0.37,0.704 0.55,1.25 0.55,1.524 0,0.41 -0.3,0.625 -0.88,0.723 v 0.39 h 5.47 v -0.39 c -0.57,-0.157 -0.84,-0.372 -0.84,-0.723 0,-0.215 0.23,-0.82 0.66,-1.797 l 5.92,-12.969 c 0.43,-0.801 0.74,-1.386 1.05,-1.699 0.3,-0.332 0.63,-0.527 1.1,-0.586 v -0.488 h -4.89 v 0.488 c 0.53,0.059 0.81,0.313 0.81,0.566 0,0.137 -0.2,0.45 -0.43,1.094 z m -0.8,1.816 -4.04,9.121 -4.12,-9.121 z"
         style="fill:#231f20;fill-opacity:1;fill-rule:nonzero;stroke:none"
         id="path96" /><path
         d="m 1060.2,145.371 -1.86,-3.594 -0.39,0.176 c 0.08,0.332 0.1,0.567 0.1,0.684 0,0.254 -0.35,0.566 -1.12,0.976 -1.52,0.801 -3.38,1.211 -5.56,1.211 -1.82,0 -3.3,-0.332 -4.53,-0.976 -1.25,-0.684 -1.86,-1.621 -1.86,-2.793 0,-0.489 0.16,-1.016 0.47,-1.465 0.31,-0.391 0.72,-0.703 1.25,-0.879 0.55,-0.176 1.07,-0.293 1.7,-0.371 0.6,0 1.91,-0.117 3.98,-0.176 1.6,-0.059 2.87,-0.137 3.79,-0.312 0.86,-0.137 1.56,-0.43 2.17,-0.782 0.66,-0.312 1.19,-0.898 1.58,-1.582 0.33,-0.664 0.55,-1.425 0.55,-2.246 0,-1.758 -0.7,-3.105 -2.13,-4.121 -1.68,-1.211 -3.93,-1.836 -6.72,-1.836 -1.41,0 -2.83,0.254 -4.3,0.645 -1.56,0.41 -2.96,0.976 -4.27,1.738 -0.14,0.117 -0.32,0.156 -0.39,0.156 -0.18,0 -0.39,-0.195 -0.71,-0.625 l -0.43,0.293 2.11,3.535 0.39,-0.195 c -0.04,-0.176 -0.06,-0.254 -0.06,-0.293 -0.05,-0.195 -0.09,-0.312 -0.09,-0.469 0,-0.312 0.62,-0.742 1.72,-1.328 1.89,-1.015 3.92,-1.562 5.91,-1.562 1.88,0 3.44,0.332 4.67,0.996 0.63,0.293 1.13,0.762 1.49,1.25 0.37,0.566 0.52,1.113 0.52,1.699 0,0.488 -0.13,0.996 -0.45,1.426 -0.31,0.429 -0.68,0.683 -1.23,0.898 -0.37,0.176 -0.95,0.254 -1.5,0.352 -0.53,0.019 -1.62,0.117 -3.18,0.176 -1.82,0.078 -3.13,0.175 -3.87,0.253 -0.84,0.118 -1.56,0.274 -2.23,0.528 -0.9,0.312 -1.6,0.879 -2.17,1.582 -0.56,0.762 -0.84,1.621 -0.84,2.637 0,1.796 0.84,3.183 2.45,4.238 1.64,1.035 3.75,1.562 6.3,1.562 2.35,0 4.71,-0.527 7.04,-1.562 0.37,-0.176 0.54,-0.215 0.62,-0.215 0.18,0 0.39,0.176 0.63,0.625 l 0.45,-0.254"
         style="fill:#231f20;fill-opacity:1;fill-rule:nonzero;stroke:none"
         id="path98" /><path
         d="m 293.629,188.594 c 0.906,0 2.605,0.703 2.605,0.703 1.985,3.75 -7.05,8.906 -7.05,8.906 0,0 -1.922,-0.918 -2.645,-1.23 -2.48,-0.879 6.973,-8.379 7.09,-8.379 m -36.359,0.469 c 0,0 -0.977,-5.528 2.285,-8.672 11.718,-6.289 25.332,-6.661 35.304,-0.723 0.633,2.012 1.661,4.941 1.805,7.109 -10.957,-5.058 -29.648,-1.718 -39.394,2.286 m -89.434,-2.11 c 0.187,-2.949 0.773,-5.937 3.254,-8.027 10.242,-4.571 23.66,-2.891 33.34,1.054 3.582,1.368 2.91,3.809 2.82,9.317 -11.57,-5.313 -27.344,-6.934 -39.414,-2.344 m 90.273,4.434 c 0.215,-0.43 2.063,-1.094 3.516,-1.27 1.438,0.176 0.246,5.391 0.43,6.485 -0.176,-0.02 -3.946,-0.704 -3.946,-5.215 m -55.769,5.84 c 0,0 0,-7.383 -0.09,-7.383 1.652,0.586 4.375,1.211 4.621,2.129 0.301,1.211 -2.648,4.375 -4.531,5.254 m -27.981,2.246 c -2.363,-2.813 -6.277,-4.864 -6.66,-9.649 -0.066,-1.269 4.621,-1.289 4.688,-1.269 2.832,2.226 5.488,3.203 6.66,8.105 -0.234,1.485 -3.203,2.754 -4.688,2.813 m 28.965,0.957 c 0.02,-1.309 3.528,-3.457 5.039,-6.27 1.516,-2.793 1.309,-5.371 1.309,-5.39 12.344,-5.801 32.734,-7.422 45.293,-1.094 0.168,5.469 1.594,9.258 5.82,11.113 0.625,0.625 -0.39,1.953 -1.414,1.953 -8.691,-3.457 -16.906,-7.773 -27.199,-7.558 -11.211,-0.957 -19.238,6.914 -28.848,7.246 m 84.512,7.363 c -3.906,-0.605 -3.301,-6.699 -2.852,-9.004 4.61,2.871 10.821,4.258 15.782,3.203 0.234,-0.019 0.293,3.848 0.293,5.684 0,0 -7.286,2.207 -13.223,0.117 m -124.922,0.391 c -0.059,-2.032 -0.262,-4.59 0.098,-5.977 5.547,0.606 13.359,-0.273 16.301,-2.793 l -0.481,6.133 c -3.086,5.156 -10.586,3.418 -15.918,2.637 m 57.258,17.91 v -2.637 c 2.723,-7.48 11.601,-5.137 17.762,-7.031 1.66,-0.645 3.398,-2.871 4.718,-4.102 0.36,14.668 -15.617,7.852 -22.48,13.77 m 2,3.164 -0.899,-0.938 0.899,-0.703 z m -16.797,17.301 c -0.82,-1.68 1.438,-3.731 2.09,-5.602 2.676,-10.293 -11.152,-11.973 -16.485,-17.324 -2.07,-2.227 -3.3,-4.903 -2.89,-7.969 0.82,-2.109 3.125,-3.984 5.332,-4.18 2.891,0.45 5.996,1.075 8.047,3.555 0.625,1.25 0,3.106 -1.219,3.457 -2.453,-1.875 -4.758,-3.945 -8.078,-3.457 -0.957,0.137 -2.227,0.938 -2.02,2.207 3.524,6.602 11.739,7.461 16.883,12.988 2.481,3.145 3.488,6.856 2.676,10.957 -1.016,1.813 -1.211,5.719 -4.336,5.368 m -12.742,2.226 c -2.043,-2.226 -3.301,-5.332 -2.481,-8.648 0.828,-1.211 1.063,-3.535 2.657,-3.711 7.214,1.289 0.254,6.793 1.25,10.765 0.214,1.348 1.433,3.118 3.093,3.438 -1.855,-0.223 -3.476,-0.606 -4.519,-1.844 m 76.426,2.469 c -8.274,-1.844 -16.711,-6.797 -25.364,-3.719 -0.605,-1.437 0.227,-2.871 1.27,-3.703 9.062,-3.695 17.851,1.477 26.543,3.359 1.015,-0.281 1.633,-1.269 1.633,-2.312 -2.258,-4.156 -7.188,-5.152 -11.282,-6.578 -0.234,-0.879 0.567,-1.074 0.957,-1.699 3.321,-2.442 6.407,1.445 9.297,3.125 2.668,2.461 5.371,5.152 4.532,8.726 -1.446,2.801 -4.754,2.586 -7.586,2.801 m -25.969,0.871 c -0.84,-1.719 1.242,-1.816 2.246,-2.316 4.336,-1.27 10.332,-1.024 13.613,1.73 -4.336,2.832 -11.523,3.184 -15.859,0.586 m -45.137,9.031 c 0.82,-0.652 1.465,-1.66 2.5,-1.25 0.41,0.598 1.231,0.801 1.016,1.418 -0.399,2.137 -3.067,1.836 -3.516,-0.168 m 22.871,3.879 c -0.652,-2.187 -0.195,-4.933 0.43,-6.984 3.926,-8.379 12.773,-9.891 19.766,-13.172 0.421,0.43 0.421,1.043 0.625,1.68 -2.461,10.281 -14.852,12.109 -20.821,18.476 m 43.039,0.613 c -1.047,-0.32 -2.863,-0.195 -2.453,-1.863 3.516,-1.25 7.383,-2.012 10.703,-3.683 1.457,-0.606 4.309,-1.856 4.309,1.054 -3.672,2.629 -8,4.172 -12.559,4.492 m -71.23,-0.613 c -0.832,-0.801 -0.461,-2.5 0,-3.262 -1.867,-3.722 1.238,-6.613 3.68,-8.418 3.71,-0.871 7.421,-0.871 10.109,1.649 -0.637,1.594 -1.418,3.437 -3.098,4.492 -3.301,-4.148 -7.011,1.008 -9.902,2.277 0.449,0.165 0.637,1.075 1.269,0.594 0.989,0.481 3.106,1.094 2.852,2.668 -1.641,1.629 -3.27,1.629 -4.91,0 m 51.863,1.629 c -1.23,-1.016 -3.476,-1.629 -2.851,-3.66 2.441,0.605 5.128,1.699 6.574,3.66 -1.047,0.52 -2.629,0.215 -3.723,0 m 3.496,2.715 c 4.356,-0.606 6.992,-4.551 7.832,-8.418 1.047,0.617 2.5,0.363 3.321,1.574 0.41,2.5 -0.645,4.344 -2.09,5.996 -2.235,1.817 -6.778,3.094 -9.063,0.848 m -24.871,1.855 c -1.066,-0.605 -1.476,-1.629 -1.25,-2.839 0.449,-0.899 1.024,-2.747 1.844,-2.141 0.39,1.887 0.39,3.769 -0.594,4.98 m 51.082,0 c -6.211,-2.839 -10.73,4.504 -16.094,1.243 4.954,-2.258 9.68,-6.829 15.852,-4.563 1.453,0.859 3.73,1.867 3.523,4.152 h -1.062 z m -77.89,2.239 c -2.637,-1.243 -7.188,-2.844 -7.188,-6.153 1.465,-2.492 3.508,0.176 4.934,1.075 3.289,3.066 7.011,0.378 10.496,-0.481 0.449,1.465 -0.821,2.91 -1.621,4.152 -1.68,1.825 -4.161,1.407 -6.621,1.407 m 54.121,11.757 c 0.468,-0.898 0.468,-3.066 2.199,-2.628 2.578,2.148 2.578,6.007 2.187,9.074 -2.187,-1.281 -4.152,-4.094 -4.386,-6.446 m 14.785,10.743 -0.438,-2.305 c -0.226,-4.004 3.817,-3.438 5.262,-4.297 v 4.297 c -1.27,2 -2.949,1.707 -4.824,2.305 m -13.067,9.824 -0.379,2.742 -0.871,-2.742 z m 18.164,8.738 -1.257,-1.894 c 0.789,-0.235 1.004,-0.313 1.785,0.031 z m 5.098,6.008 c -1.453,-1.211 -3.523,-3.664 -3.601,-4.68 0.078,-1.66 1.355,-6.687 0.535,-9.785 1.465,-0.613 3.359,0.305 4.609,0.645 1.516,4.484 2.07,10.664 -1.543,13.82 m -80.156,0.555 c 1.035,-2.246 4.394,-2.508 6.894,-3.133 l -0.918,1.601 c -1.718,2.45 -3.359,3.055 -5.976,1.532 m 65.832,-0.243 c -1.231,-2.003 -1.242,-4.667 -0.051,-6.757 1.895,1.484 4.727,4.265 5.93,5.957 -1.016,1.824 -4.035,3.3 -5.879,0.8 m 0.555,5.137 c -21.434,-9.484 2.246,-28.742 -6.68,-44.707 1.992,-0.383 4.387,0.653 5.469,2.43 4.336,10.109 0.488,21.242 -1.844,30.937 -0.871,3.399 -0.527,5.461 2.058,7.969 2.637,2.277 6.27,0.313 7.52,-1.387 0.625,0.461 2.871,2.422 2.871,3.293 -2.383,1.786 -6.113,2.11 -9.394,1.465 m -72.735,-0.851 c 1.856,-6.512 8.32,-0.203 10.899,-2.254 12.16,-10.344 -3.75,-22.461 0.793,-35.481 1.023,-2.656 2.722,-4.851 5.39,-6.113 2.918,-0.945 6.922,-0.078 9.363,1.543 0.43,1.477 -1.132,2.727 -2.175,4.199 -1.008,-0.859 -2.051,-2.234 -2.844,-3.008 -1.035,-2.109 -3.711,-1.699 -4.141,0.403 -1.64,12.859 8.965,28.992 -2.793,39.902 -4.218,3.203 -10.175,3.133 -14.492,0.809 m 56.32,-126.938 c 0.106,-0.078 2.625,0 11.329,4.453 9.07,4.688 7.851,-13.261 7.851,-13.261 9.61,-4.102 25.028,-2.813 26.289,-1.856 1.18,0.996 -5.07,4.473 -7.082,8.242 -1.758,3.321 -1.465,10.332 0,11.895 5.449,5.82 19.356,1.777 19.356,1.777 0.449,-1.308 -0.391,-9.668 -0.391,-9.668 -0.879,0.508 -10.371,1.016 -11.25,-0.84 0,0 4.57,-1.679 6.465,-5.898 2.754,-6.152 -1.992,-15.43 -1.992,-15.43 -18.535,-10.429 -37.625,0.957 -38.379,1.582 -0.946,0.899 -2.293,5.84 -2.293,5.84 -22.442,-9.219 -45.539,1.035 -45.539,1.035 0.246,-4.375 -1.864,-6.933 -1.864,-6.933 -23.566,-11.133 -39.035,-1.309 -39.035,-1.309 -8.894,14.18 3.567,22.207 3.567,22.207 -1.789,0.82 -11.399,0.391 -11.399,0.391 v 9.238 c 21.153,4.766 20.078,-3.516 20.293,-10.723 0.235,-7.187 -7.215,-11.347 -7.215,-11.347 16.336,-3.184 26.024,1.562 26.024,1.562 0,0 -0.106,1.973 0.148,10.254 0.203,8.262 17.43,-0.625 17.43,-0.625 3.73,2.559 3.937,18.731 3.937,18.731 -8.683,9.55 0.43,14.589 0.43,14.589 0.438,13.102 -10.898,13.746 -10.898,13.746 2.41,-12.203 -0.657,-13.746 -2.414,-16.792 -1.727,-3.067 -17.227,-10.274 -16.309,-12.188 0.832,-2.051 8.711,4.316 8.711,4.316 2.59,-2.578 2.363,-7.207 2.363,-7.207 -3.047,-5.683 -17.664,-6.504 -16.797,3.731 0.957,11.25 9.395,9.59 16.582,15.449 7.207,5.899 -1.933,12.691 -1.933,12.691 -1.738,-0.214 -4.59,-1.992 -4.59,-1.992 0.227,-2.144 3.047,-5.855 3.047,-5.855 -1.27,-1.485 -8.086,-4.356 -8.086,-4.356 -1.094,0.43 -2.832,3.731 -2.832,3.731 l -1.941,-2.207 c 4.402,-16.387 -10.696,-16.563 -10.696,-16.563 l 0.442,3.887 c -2.618,-1.309 -9.153,-0.684 -9.153,-0.684 -0.437,6.368 5.449,11.348 5.449,11.348 -0.644,0.274 -1.726,2.012 -1.726,2.012 6.523,5.859 12.879,2.207 12.879,2.207 l 1.281,2.539 c -3.73,6.988 2.606,3.746 2.606,3.746 0.449,5.887 4.589,7.586 4.589,7.586 -0.195,1.144 -2.636,2.199 -2.636,2.199 -10.235,-8.476 -15.664,4.805 -15.664,4.805 -2.188,-0.207 -5.489,1.523 -5.489,1.523 0.664,1.309 3.067,3.465 3.067,3.465 -0.879,0.539 -2.403,5.871 -2.403,5.871 1.114,0.672 6.543,0.906 6.543,0.906 0,1.309 1.75,3.75 1.75,3.75 1.317,-0.925 4.598,-5.3 4.598,-5.3 1.301,0.261 3.672,-0.852 3.672,-0.852 0,1.113 1.523,3.039 1.523,3.039 0.235,0.672 -3.437,2.625 -3.437,2.625 l 0.851,1.133 c 0.84,0 4.989,-1.328 4.989,-1.328 11.152,6.953 15.468,-0.664 15.468,-0.664 1.329,-9.871 3.946,-7.188 3.946,-7.188 0.449,0.899 -0.43,5.422 -0.43,5.422 h 3.059 c 0.429,-2.57 5.449,-8.105 5.449,-8.105 -0.246,10.535 6.082,13.601 6.082,13.601 -0.625,16.34 -14.16,21.133 -14.16,21.133 -0.899,-3.269 -2.227,-12.226 -1.102,-12.656 1.102,-0.438 4.637,5 4.637,5 4.094,-2.567 4.953,-7.801 4.953,-7.801 -14.16,-8.742 -18.711,4.813 -18.711,4.813 -0.918,-0.274 -8.957,-1.582 -8.957,-1.582 -1.328,1.582 1.504,9.132 1.504,9.132 -5.254,0.262 -8.262,-4.562 -8.262,-4.562 2.207,-11.738 -14.179,-14.16 -14.179,-14.16 0.656,0.89 -1.993,3.32 -1.993,3.32 -1.699,-0.703 -9.57,-1.328 -9.57,-1.328 -0.223,5.625 5.039,9.348 5.039,9.348 -0.683,0.644 -2,5.007 -2,5.007 11.375,5.676 18.543,1.379 18.543,1.379 7.012,6.727 20.508,9.11 20.508,9.11 0.187,1.562 1.094,3.242 1.094,3.242 0.644,3.019 -11.356,3.019 -11.356,3.019 0.438,0.918 -1.515,5.731 -1.515,5.731 -0.86,0 -2.606,-1.102 -2.606,-1.102 -4.348,-6.281 -5.051,-0.871 -5.051,-0.871 -1.074,0.215 -4.121,-2.207 -4.121,-2.207 -2.383,-5.879 -13.281,-5.879 -13.281,-5.879 1.086,1.309 0,3.059 0,3.059 -2.402,0.262 -8.074,4.824 -8.074,4.824 1.746,1.512 7.859,4.609 7.859,4.609 -1.758,1.524 -1.308,8.055 -1.308,8.055 1.066,-1.152 7.636,-2.461 7.636,-2.461 6.055,-0.183 7.852,-6.746 7.852,-6.746 2.168,-0.422 9.375,3.68 9.375,3.68 -1.563,6.554 -8.75,7.707 -8.75,7.707 -15.223,-7.051 -17.625,6.504 -17.625,6.504 -1.106,0.496 -4.629,2 -4.629,2 0.918,1.289 5.008,3.222 5.008,3.222 -1.075,0.664 -1.485,5.93 -1.485,5.93 1.485,0.379 7.395,-0.469 7.395,-0.469 -0.402,1.309 1.543,4.383 1.543,4.383 l 3.047,-6.551 c 0,0 9.179,2.637 7.82,-10.039 0,0 1.113,-1.32 3.75,-2.383 0,0 1.523,4.766 0.41,6.747 -1.101,1.953 -3.691,6.75 -4.336,6.972 0,0 3.926,-1.055 4.766,-1.758 0,0 2.609,2.629 2.609,3.743 0,0 6.133,-6.575 5.672,-10.274 -0.41,-3.703 -5.039,-6.75 -6.082,-7.168 l 1.524,-1.348 c 0,0 15.71,6.571 22.019,-6.281 0,0 0.879,5.461 0.43,6.77 0,0 -8.543,0.957 -3.66,11.57 2.128,4.746 -0.481,6.731 -0.481,6.731 0,0 6.953,-1.114 8.301,-6.368 0,0 3.672,3.086 2.793,6.368 0,0 6.594,-2.832 4.816,-12.461 -1.066,-5.84 -6.086,-6.75 -6.086,-6.75 0,0 -3.515,-11.094 2.395,-20.282 0,0 5.457,4.793 6.082,6.766 0,0 -4.317,6.523 -1.074,11.328 3.261,4.805 6.113,3.477 7.422,4.59 0,0 4.14,5.012 4.355,6.359 0,0 1.523,-4.394 0.859,-5.488 0,0 5.664,1.523 6.758,1.523 0,0 -0.449,-5.449 -1.094,-6.066 0,0 3.067,-2.84 5.442,-2.012 0,0 -3,-3.711 -4.797,-4.121 0,0 -2.598,-12.246 -15.262,-9.383 0,0 -4.758,-5.031 -5.246,-6.562 0,0 5.246,-6.973 5.246,-8.691 0,0 6.766,2.195 8.524,0.867 0,0 11.535,4.601 11.992,25.031 l 3.047,0.672 c 0,0 -1.309,6.379 0,10.265 0,0 -11.543,12.43 -3.934,16.317 0,0 1.973,-3.672 4.344,-4.734 0,0 3.945,1.062 4.816,3.691 0,0 4.793,-6.543 3.055,-12.16 0,0 -5.215,-7.489 -4.141,-11.348 0,0 5.02,6.055 14.18,4.524 0,0 -1.101,7.441 3.516,13.289 0,0 0.625,-3.926 3,-5.848 2.449,-1.973 1.992,-5.02 1.336,-5.91 l 2.832,1.086 c 0,0 -3.516,10.261 5.019,12.676 0,0 1.965,5.468 3.254,6.933 l 3.289,-3.691 c 0,0 3.692,3.484 5.449,3.484 0,0 1.934,-5.664 1.485,-6.726 0,0 3.965,-0.45 5.078,0.175 0,0 -4.16,-6.933 -5.078,-7.402 0,0 2.441,-11.731 -14.844,-8.731 l -5.371,-4.785 c 0,0 1.719,-2.629 1.719,-3.437 0,0 10.011,3.437 11.757,5.222 0,0 0,-6.101 -0.898,-7.898 0,0 6.152,-1.719 8.086,-1.047 0,0 -2.383,-7.234 -8.086,-8.125 0,0 2.012,-3.047 -2.383,-2.39 0,0 -3.926,-1.309 -4.824,-2.559 0,0 -2.559,3.68 -3.926,3.914 0,0 -5.84,-2.176 -8.027,-1.133 0,0 1.133,3.516 0.226,4.328 l -0.851,0.918 0.851,-0.918 c 0,0 -8.078,-0.332 -7.628,-3.879 0,0 1.093,-6.308 1.093,-7.195 0,0 6.075,-1.086 7.168,-1.933 l 0.274,-8.282 -6.797,2.196 c 0,0 -2.188,-11.387 -9.59,-10.059 -7.41,1.262 -8.953,4.777 -2.84,15.039 0,0 -12.402,-1.258 -12.238,-18.301 0,0 0.683,-1.523 3.125,-0.683 0,0 -0.469,-4.336 -1.121,-5.868 0,0 6.726,4.571 11.98,2.606 0,0 3.711,5.254 10.461,2.832 0,0 3.504,0 2.813,8.762 l 3.3,0.222 0.243,-4.863 c 0,0 5.429,2.668 6.113,3.926 0,0 -2.859,7.89 4.98,10.734 0,0 2.657,4.102 3.926,4.559 0,0 1.719,-5.887 1.524,-7.195 0,0 6.543,1.113 8.086,0.632 0,0 -0.899,-5.175 -1.973,-6.55 0,0 3.262,-1.465 4.375,-3.04 0,0 -11.805,-6.531 -17.481,-4.14 0,0 -7.402,-2.168 -8.73,-3.914 0,0 3.293,-1.965 8.496,1.297 v -3.262 h 2.461 c 0,0 12.617,8.73 17.629,-2.606 0,0 3.25,-1.515 5.242,-0.625 0,0 -0.879,-3.945 -2.625,-4.355 0,0 2.625,-4.191 2.625,-6.367 0,0 -3.711,-1.055 -5.879,-0.207 0,0 0,-4.598 -0.469,-5.887 0,0 -4.343,3.25 -5.007,5.039 0,0 -11.809,-1.789 -12.2,10 l -2.832,0.887 c 0,0 -3.515,-2.645 -5.007,-3.055 0,0 3.894,-2.187 4.753,-3.262 0,0 -1.894,-5.031 -3.437,-5.207 0,0 -13.543,6.907 -17.234,2.18 0,0 6.746,-3.996 8.289,-5.695 0,0 14.16,3.234 11.523,-8.692 l 0.859,-1.355 c 0,0 7.012,-0.66 9.426,-13.102 0,0 -8.508,-2.207 -10.715,10.02 0,0 -0.859,-0.391 -1.511,-1.055 0,0 0.906,-2.187 0.449,-3.027 0,0 9.812,-9.649 -3.281,-20.098 0,0 -4.836,5.449 -4.836,7.891 0,0 -5.86,1.875 -8.692,-1.328 0,0 -0.644,10.859 12.668,12.011 l 0.203,2.364 c 0,0 -4.57,-2.832 -6.531,-3.242 0,0 -4.394,0 -8.078,5.214 0,0 13.086,4.352 11.797,5.864 -1.367,1.535 -15.469,-7.407 -25.742,-2.172 0,0 -1.114,-1.973 -2.637,-2.168 0,0 -4.57,-8.262 -1.492,-16.367 0,0 10.125,-7.071 2.48,-14.59 0,0 1.199,-10.117 2.949,-11.016"
         style="fill:#b2b1b1;fill-opacity:1;fill-rule:nonzero;stroke:none"
         id="path100" /><path
         d="m 541.391,199.492 c -0.625,0 -1.2,0.059 -1.758,0.215 -0.508,0.02 -1.102,0.098 -1.738,0.098 -1.27,0 -4.266,-1.27 -9.063,-3.828 -4.793,-2.539 -10.859,-5.411 -18.152,-8.594 -7.336,-3.145 -15.676,-5.977 -25,-8.281 -9.348,-2.344 -19.094,-3.457 -29.27,-3.457 -13.398,0 -26.23,1.64 -38.535,5.058 -12.312,3.399 -23.203,8.652 -32.664,15.781 -9.465,7.09 -16.992,15.957 -22.539,26.582 -5.52,10.606 -8.293,23.051 -8.293,37.27 0,13.996 2.773,26.348 8.293,37.109 5.547,10.696 13.074,19.7 22.539,26.914 9.461,7.2 20.352,12.629 32.664,16.204 12.305,3.621 25.137,5.417 38.535,5.417 10.813,0 20.625,-0.839 29.434,-2.578 8.789,-1.648 16.504,-3.504 23.078,-5.429 6.57,-1.895 11.785,-3.719 15.613,-5.379 3.809,-1.731 6.145,-2.571 6.985,-2.571 1.082,0 1.972,0.508 2.742,1.614 0.703,1.004 1.301,1.914 1.73,2.539 l 4.774,-3.828 -24.844,-38.594 -3.184,2.246 c 0,0.625 -0.047,1.27 -0.156,1.902 -0.098,0.637 -0.254,1.36 -0.449,2.227 -0.449,2.297 -2.578,4.738 -6.387,7.148 -3.848,2.434 -8.574,4.621 -14.16,6.504 -5.633,1.914 -11.582,3.496 -17.832,4.778 -6.27,1.289 -12.051,1.921 -17.344,1.921 -8.945,0 -17.488,-1.289 -25.644,-3.835 -8.184,-2.532 -15.274,-6.243 -21.348,-11.094 -6.016,-4.895 -10.867,-10.899 -14.473,-17.969 -3.593,-7.141 -5.41,-15.234 -5.41,-24.309 0,-9.16 1.817,-17.293 5.41,-24.359 3.606,-7.168 8.457,-13.125 14.473,-17.988 6.074,-4.883 13.164,-8.574 21.348,-11.133 8.156,-2.559 16.699,-3.828 25.644,-3.828 6.778,0 13.887,0.781 21.32,2.363 7.43,1.582 14.219,3.652 20.379,6.035 6.164,2.5 11.301,5.235 15.442,8.301 4.129,3.086 6.199,5.996 6.199,8.75 0,1.543 -0.418,2.813 -1.289,3.809 l 4.453,2.558 21.055,-33.73 -2.578,-2.559"
         style="fill:#b01220;fill-opacity:1;fill-rule:nonzero;stroke:none"
         id="path102" /><path
         d="m 594.105,229.082 3.184,-1.582 c 0,-1.934 0.43,-3.691 1.289,-5.137 1.485,-2.558 4.395,-5.058 8.762,-7.5 4.344,-2.461 9.324,-4.609 14.988,-6.523 5.606,-1.934 11.5,-3.477 17.652,-4.59 6.172,-1.211 11.7,-1.816 16.563,-1.816 3.633,0 8.301,0.293 14.023,0.859 5.743,0.488 11.368,1.641 16.875,3.301 5.528,1.758 10.313,4.023 14.356,7.051 4.023,2.968 6.055,6.894 6.055,11.796 0,4.844 -1.856,8.497 -5.567,10.762 -3.73,2.422 -8.613,4.082 -14.648,5.117 -6.094,1.094 -12.969,1.797 -20.703,2.114 -7.754,0.324 -15.684,0.781 -23.711,1.425 -8.086,0.657 -16,1.711 -23.727,3.176 -7.734,1.485 -14.668,3.945 -20.703,7.488 -6.074,3.489 -10.918,8.274 -14.668,14.368 -3.691,6.035 -5.535,13.972 -5.535,23.73 0,6.563 1.523,13.035 4.609,19.422 3.035,6.359 7.781,11.984 14.16,16.914 6.336,4.844 14.414,8.828 24.161,11.926 9.75,3.074 21.195,4.597 34.32,4.597 11.289,0 21.035,-0.839 29.355,-2.578 8.223,-1.648 15.391,-3.504 21.465,-5.429 6.055,-1.895 11.074,-3.719 15.215,-5.379 4.18,-1.731 7.617,-2.571 10.391,-2.571 2.949,0 5.078,0.645 6.328,1.934 l 3.808,-2.586 -21.914,-39.855 -3.164,1.281 c -0.469,2.996 -1.289,5.418 -2.558,7.332 -1.739,2.559 -4.551,5.051 -8.418,7.461 -3.946,2.433 -8.555,4.621 -13.868,6.523 -5.332,1.907 -11.035,3.469 -17.187,4.641 -6.152,1.16 -12.266,1.726 -18.457,1.726 -4.688,0 -9.473,-0.39 -14.453,-1.074 -4.981,-0.769 -9.492,-1.863 -13.52,-3.386 -4.023,-1.477 -7.383,-3.45 -10.011,-5.86 -2.676,-2.422 -3.965,-5.5 -3.965,-9.043 0,-5.109 1.836,-8.945 5.566,-11.504 3.692,-2.539 8.555,-4.453 14.625,-5.734 6.035,-1.289 12.949,-2.09 20.703,-2.547 7.735,-0.371 15.645,-0.937 23.75,-1.582 8.028,-0.637 15.938,-1.711 23.692,-3.32 7.734,-1.582 14.629,-4.114 20.703,-7.657 6.035,-3.507 10.898,-8.234 14.668,-14.152 3.691,-5.937 5.547,-13.715 5.547,-23.207 0,-11.094 -2.969,-20.039 -8.75,-27.09 -5.86,-6.972 -13.145,-12.5 -21.817,-16.504 -8.75,-4.101 -18.144,-6.738 -28.203,-8.164 -10.117,-1.347 -19.492,-2.011 -28.223,-2.011 -12.05,0 -22.226,0.664 -30.375,1.992 -8.183,1.426 -14.992,3.125 -20.382,5.097 -5.45,2.032 -9.727,3.848 -12.93,5.43 -3.184,1.563 -5.957,2.402 -8.262,2.402 -1.504,0 -2.859,-0.859 -4.148,-2.539 l -4.485,2.539 17.539,38.516"
         style="fill:#b01220;fill-opacity:1;fill-rule:nonzero;stroke:none"
         id="path104" /><path
         d="m 785.176,182.207 c 5.508,0 8.262,1.895 8.262,5.723 v 144.633 c 0,3.82 -2.754,5.722 -8.262,5.722 V 344 h 52.851 v -5.715 c -5.566,0 -8.281,-1.902 -8.281,-5.722 V 187.93 c 0,-3.828 2.715,-5.723 8.281,-5.723 v -5.742 h -52.851 v 5.742"
         style="fill:#b01220;fill-opacity:1;fill-rule:nonzero;stroke:none"
         id="path106" /><path
         d="m 1059.32,199.492 c -0.63,0 -1.25,0.059 -1.76,0.215 -0.51,0.02 -1.08,0.098 -1.72,0.098 -1.27,0 -4.36,-1.27 -9.12,-3.828 -4.77,-2.539 -10.78,-5.411 -18.11,-8.594 -7.34,-3.145 -15.7,-5.977 -25,-8.281 -9.313,-2.344 -19.098,-3.457 -29.294,-3.457 -13.378,0 -26.211,1.64 -38.496,5.058 -12.324,3.399 -23.242,8.652 -32.734,15.781 -9.434,7.09 -16.914,15.957 -22.441,26.582 -5.586,10.606 -8.321,23.051 -8.321,37.27 0,13.996 2.735,26.348 8.321,37.109 5.527,10.696 13.007,19.7 22.441,26.914 9.492,7.2 20.41,12.629 32.734,16.204 12.285,3.621 25.118,5.417 38.496,5.417 10.821,0 20.606,-0.839 29.434,-2.578 8.85,-1.648 16.48,-3.504 23.07,-5.429 6.6,-1.895 11.81,-3.719 15.62,-5.379 3.81,-1.731 6.15,-2.571 7.03,-2.571 1.02,0 1.98,0.508 2.66,1.614 0.78,1.004 1.37,1.914 1.82,2.539 l 4.74,-3.828 -24.82,-38.594 -3.21,2.246 c 0,0.625 -0.09,1.27 -0.13,1.902 -0.12,0.637 -0.28,1.36 -0.53,2.227 -0.37,2.297 -2.56,4.738 -6.35,7.148 -3.79,2.434 -8.49,4.621 -14.16,6.504 -5.62,1.914 -11.56,3.496 -17.81,4.778 -6.25,1.289 -12.071,1.921 -17.364,1.921 -8.906,0 -17.461,-1.289 -25.625,-3.835 -8.164,-2.532 -15.332,-6.243 -21.308,-11.094 -6.055,-4.895 -10.918,-10.899 -14.551,-17.969 -3.535,-7.141 -5.371,-15.234 -5.371,-24.309 0,-9.16 1.836,-17.293 5.371,-24.359 3.633,-7.168 8.496,-13.125 14.551,-17.988 5.976,-4.883 13.144,-8.574 21.308,-11.133 8.164,-2.559 16.719,-3.828 25.625,-3.828 6.797,0 13.926,0.781 21.309,2.363 7.485,1.582 14.255,3.652 20.425,6.035 6.1,2.5 11.29,5.235 15.41,8.301 4.17,3.086 6.22,5.996 6.22,8.75 0,1.543 -0.45,2.813 -1.27,3.809 l 4.43,2.558 21,-33.73 -2.52,-2.559"
         style="fill:#b01220;fill-opacity:1;fill-rule:nonzero;stroke:none"
         id="path108" /></g></g></svg>
