<?xml version="1.0" encoding="UTF-8"?>
<svg xmlns="http://www.w3.org/2000/svg" xmlns:xlink="http://www.w3.org/1999/xlink" width="157.21pt" height="156.96pt" viewBox="0 0 157.21 156.96" version="1.1">
<defs>
<clipPath id="clip1">
  <path d="M 85 85 L 157.199219 85 L 157.199219 156.960938 L 85 156.960938 Z M 85 85 "/>
</clipPath>
<clipPath id="clip2">
  <path d="M 0.199219 0 L 157.199219 0 L 157.199219 156.960938 L 0.199219 156.960938 Z M 0.199219 0 "/>
</clipPath>
<clipPath id="clip3">
  <path d="M 85 0 L 157.199219 0 L 157.199219 72 L 85 72 Z M 85 0 "/>
</clipPath>
<clipPath id="clip4">
  <path d="M 0.199219 0 L 73 0 L 73 72 L 0.199219 72 Z M 0.199219 0 "/>
</clipPath>
<clipPath id="clip5">
  <path d="M 0.199219 85 L 72 85 L 72 156.960938 L 0.199219 156.960938 Z M 0.199219 85 "/>
</clipPath>
</defs>
<g id="surface1">
<g clip-path="url(#clip1)" clip-rule="nonzero">
<path style=" stroke:none;fill-rule:nonzero;fill:rgb(100%,100%,100%);fill-opacity:1;" d="M 157.210938 85.679688 L 157.210938 156.960938 L 85.691406 156.960938 C 110.3125 153.859375 126.738281 143.519531 139.691406 127.679688 C 148.050781 117.460938 155.410156 102.53125 156.96875 85.679688 "/>
</g>
<g clip-path="url(#clip2)" clip-rule="nonzero">
<path style=" stroke:none;fill-rule:nonzero;fill:rgb(30.589294%,47.851563%,20.384216%);fill-opacity:1;" d="M 149.769531 103.679688 C 153.21875 95.429688 155.070313 82.910156 154.089844 70.800781 C 153.371094 61.898438 150.359375 52.761719 147.128906 45.839844 C 138.628906 27.621094 122.578125 14.308594 103.929688 7.199219 C 103.78125 8.171875 104.242188 9.75 103.691406 10.320313 C 100.960938 10.230469 98.5 10.410156 96.25 10.800781 C 97.21875 13.191406 100.21875 13.550781 101.769531 15.359375 C 101.289063 16.238281 100.941406 17.25 100.089844 17.761719 C 96.769531 15.320313 93.007813 13.320313 91.449219 9.121094 C 95.25 7.710938 99.199219 7.570313 103.691406 7.199219 C 91.089844 2.050781 66.789063 1.261719 53.769531 7.441406 C 58.53125 7.320313 62.871094 7.621094 65.769531 9.359375 C 63.949219 13.300781 60.539063 15.648438 56.890625 17.761719 C 56.730469 16.71875 55.78125 16.46875 55.691406 15.359375 C 57.660156 13.53125 59.820313 13.171875 60.96875 10.800781 C 58.378906 10.671875 56.109375 10.21875 53.289063 10.320313 L 53.289063 7.441406 C 30.917969 15.871094 15.460938 31.140625 7.6875 53.039063 C 8.710938 53.140625 10.160156 52.808594 10.808594 53.28125 C 10.941406 55.859375 10.160156 58.378906 10.808594 60.71875 C 13.332031 59.800781 13.550781 56.578125 15.609375 55.199219 C 16.039063 55.96875 17.070313 56.140625 17.769531 56.640625 C 15.769531 60.480469 13.390625 63.941406 9.371094 65.757813 C 7.910156 62.738281 7.429688 58.738281 7.210938 54.480469 C 1.890625 67.21875 2.019531 91.308594 7.449219 102.480469 C 7.167969 97.800781 7.851563 94.078125 9.371094 91.199219 C 12.511719 93.007813 16.230469 96.128906 17.769531 100.320313 C 16.820313 100.648438 16.398438 101.507813 15.128906 101.519531 C 13.941406 99.429688 13.191406 96.898438 10.808594 96 C 10.660156 98.570313 10.308594 100.941406 10.332031 103.679688 C 9.160156 103.980469 8.960938 103.648438 7.6875 103.917969 C 15.871094 126.140625 30.917969 141.488281 53.289063 149.519531 C 53.441406 148.628906 52.980469 147.128906 53.53125 146.640625 C 56.070313 146.617188 58.769531 146.757813 60.96875 146.398438 C 60.011719 143.839844 57.128906 143.199219 55.210938 141.601563 C 56.058594 141.089844 56.28125 139.949219 56.890625 139.199219 C 60.429688 141.5 64.210938 143.558594 65.769531 147.839844 C 62.667969 149.300781 58.628906 149.820313 54.25 150 C 67.519531 155.160156 90.890625 155.429688 103.449219 149.757813 C 98.371094 150.039063 94.359375 149.257813 91.210938 147.601563 C 93.429688 143.820313 96.699219 141.089844 100.8125 139.199219 C 101.03125 140.269531 101.601563 140.96875 101.769531 142.078125 C 99.550781 143.140625 97.417969 144.289063 96.25 146.398438 C 98.691406 146.679688 101.46875 146.617188 103.929688 146.878906 L 103.929688 149.519531 C 126.5625 141.667969 141.492188 126.117188 149.769531 103.917969 C 148.800781 103.238281 147.46875 104.289063 146.648438 103.679688 C 146.710938 101.070313 146.640625 98.570313 146.410156 96.238281 C 144.371094 96.699219 143.160156 100.007813 141.609375 101.757813 C 141.3125 100.78125 139.691406 101.128906 139.449219 100.078125 C 141.601563 96.601563 143.46875 92.941406 148.089844 91.441406 C 149.128906 94.210938 149.820313 99.769531 149.769531 103.679688 M 157.210938 72 L 157.210938 85.679688 L 156.96875 85.679688 C 155.410156 102.53125 148.050781 117.460938 139.691406 127.679688 C 126.742188 143.519531 110.3125 153.859375 85.691406 156.960938 L 71.289063 156.960938 C 54.242188 155.03125 36.929688 146.867188 26.648438 137.28125 C 12.660156 124.230469 3.0625 108.570313 0.25 85.199219 L 0.25 71.039063 C 2.960938 51.269531 11.699219 33.628906 23.53125 22.800781 C 36.230469 11.171875 51.800781 1.859375 72.492188 0 L 85.691406 0 L 85.691406 0.238281 C 127.410156 6.039063 151.171875 32.03125 157.210938 72 "/>
</g>
<g clip-path="url(#clip3)" clip-rule="nonzero">
<path style=" stroke:none;fill-rule:nonzero;fill:rgb(100%,100%,100%);fill-opacity:1;" d="M 157.210938 0 L 157.210938 72 C 151.171875 32.03125 127.410156 6.039063 85.691406 0.238281 L 85.691406 0 "/>
</g>
<path style=" stroke:none;fill-rule:nonzero;fill:rgb(100%,100%,100%);fill-opacity:1;" d="M 6.96875 74.640625 C 8.371094 71.738281 8.53125 68.351563 5.050781 67.679688 C 4.710938 68.628906 4.390625 69.578125 4.089844 70.558594 C 6.148438 70.820313 5.628906 73.660156 6.96875 74.640625 M 12.96875 89.28125 C 14.878906 86.628906 12.179688 84.769531 11.53125 82.078125 C 9.609375 84.367188 9.761719 88.558594 12.96875 89.28125 M 13.929688 70.320313 C 13.402344 69.648438 13.53125 68.320313 12.730469 67.917969 C 8.5 70.03125 8.230469 78.371094 6.25 83.519531 C 5.140625 86.398438 3.25 87.101563 5.289063 89.28125 C 11.101563 85.960938 9.589844 75.570313 13.929688 70.320313 M 15.609375 107.757813 C 16.210938 107.019531 16.101563 105.878906 15.851563 105.359375 C 14.339844 104.449219 12.511719 105.949219 13.449219 107.519531 C 14.378906 107.390625 14.621094 107.949219 15.609375 107.757813 M 15.128906 52.078125 C 15.710938 51.539063 16.21875 50.929688 16.089844 49.679688 C 15.488281 48.878906 13.359375 49.101563 13.210938 50.160156 C 13.289063 51.359375 14.128906 51.800781 15.128906 52.078125 M 14.410156 116.640625 C 16.519531 117.101563 17.75 118.417969 19.449219 119.28125 C 18.789063 116.417969 17.371094 112.589844 13.691406 114.238281 C 13.769531 115.199219 14.210938 115.800781 14.410156 116.640625 M 13.449219 42.71875 C 16.699219 44.75 19.589844 40.21875 18.730469 38.160156 C 17.488281 38.878906 16.351563 40.851563 14.410156 40.078125 C 14.070313 40.941406 13.558594 41.628906 13.449219 42.71875 M 24.488281 37.199219 C 23.199219 36.898438 23.140625 36.679688 21.851563 36.238281 C 20.699219 39.359375 16.871094 45.058594 20.410156 47.761719 C 22.789063 45.390625 22.308594 40.269531 24.488281 37.199219 M 22.089844 120.960938 C 22.980469 120.210938 23.441406 120.519531 24.488281 120 C 22.679688 116.769531 22.78125 111.628906 19.929688 109.441406 C 17.359375 112.628906 20.832031 117.859375 22.089844 120.960938 M 29.53125 35.761719 C 29.910156 35.101563 30.832031 34.980469 30.96875 34.078125 C 28.890625 31.839844 27.191406 29.21875 24.25 27.839844 C 24 28.710938 22.980469 28.808594 22.808594 29.761719 C 25.179688 31.628906 26.839844 34.210938 29.53125 35.761719 M 31.210938 122.640625 C 30.308594 122.257813 30.140625 121.148438 29.050781 120.960938 C 27.171875 123.398438 24.539063 125.089844 22.808594 127.679688 C 23.570313 128.199219 24.109375 128.941406 24.96875 129.359375 C 26.832031 126.898438 29.480469 125.230469 31.210938 122.640625 M 36.011719 127.679688 C 35.359375 127.050781 35.011719 126.117188 33.851563 126 C 31.980469 128.210938 30.019531 130.328125 27.851563 132.238281 C 29.410156 137.859375 34.441406 128.539063 36.011719 127.679688 M 34.332031 30.71875 C 35.152344 30.261719 35.589844 29.421875 36.25 28.800781 C 33.832031 26.898438 32.140625 24.269531 29.53125 22.558594 C 28.78125 23.011719 28.53125 23.960938 27.851563 24.480469 C 29.960938 26.609375 31.832031 28.980469 34.332031 30.71875 M 42.488281 17.519531 C 42.621094 16.308594 43.789063 15.070313 42.96875 13.679688 C 41.800781 13.628906 41.460938 14.410156 40.332031 14.398438 C 40.199219 16.671875 38.609375 17.480469 37.929688 19.199219 C 39.582031 18.769531 40.851563 17.960938 42.488281 17.519531 M 43.210938 143.519531 C 44.101563 138.828125 40.308594 138.789063 38.171875 137.757813 C 38.652344 139.601563 40.511719 140.058594 40.332031 142.558594 C 41.269531 142.898438 41.929688 143.519531 43.210938 143.519531 M 47.53125 19.679688 C 44.039063 17.410156 39.738281 20.660156 36.488281 21.601563 C 36.519531 22.691406 37.082031 23.25 37.210938 24.238281 C 40.332031 22.398438 45.710938 22.820313 47.53125 19.679688 M 47.53125 137.28125 C 47.550781 136.140625 46.429688 136.140625 46.332031 135.117188 C 42.871094 135.578125 40.089844 133.398438 37.210938 132.480469 C 36.902344 133.78125 36.640625 133.929688 36.25 135.359375 C 40.011719 136.117188 43.949219 139.757813 47.53125 137.28125 M 49.210938 141.601563 C 50.332031 147.96875 54.519531 138.910156 49.210938 141.601563 M 51.128906 16.320313 C 51.378906 15.449219 52.261719 15.210938 52.089844 13.921875 C 51.261719 12.820313 49.019531 13.238281 49.210938 15.121094 C 49.582031 15.789063 50.410156 16 51.128906 16.320313 M 74.890625 11.28125 C 71.730469 9.46875 69.03125 10.121094 67.691406 13.199219 C 68.769531 13.398438 69.660156 13.789063 70.570313 14.160156 C 71.46875 12.660156 73.21875 12.011719 74.890625 11.28125 M 70.332031 152.878906 C 71.179688 151.25 73.671875 151.257813 75.128906 150.238281 C 72.308594 148.839844 68.621094 148.679688 67.691406 151.917969 C 68.390625 152.417969 69.25 152.757813 70.332031 152.878906 M 89.289063 144 C 86.347656 142.449219 84.710938 144.949219 82.332031 145.917969 C 85.730469 147.417969 88.011719 147.367188 89.289063 144 M 86.652344 8.160156 C 88.03125 7.5 88.71875 5.839844 89.289063 5.039063 C 86.300781 3.378906 84.859375 6.179688 82.332031 6.960938 C 83.519531 7.078125 85.03125 7.800781 86.652344 8.160156 M 86.890625 152.878906 C 87.589844 152.378906 89.082031 152.667969 89.289063 151.679688 C 86.050781 145.859375 75.75 147.378906 70.332031 143.28125 C 69.808594 143.648438 68.902344 143.539063 67.929688 144.238281 C 71.488281 150.148438 81.609375 147.949219 86.890625 152.878906 M 87.128906 13.921875 C 87.847656 13.441406 89.191406 13.578125 89.289063 12.480469 C 87.308594 8.089844 76.851563 7.808594 72.25 5.761719 C 71.03125 5.21875 70.839844 4.320313 69.851563 4.320313 C 69.238281 4.320313 68.359375 5 68.171875 5.761719 C 72.480469 10.929688 81.890625 9.601563 87.128906 13.921875 M 105.847656 16.320313 C 108.738281 16.789063 108.359375 11.589844 104.890625 13.679688 C 104.941406 14.640625 105.378906 15.25 105.847656 16.320313 M 107.050781 144 C 107.578125 143.339844 108.128906 142.21875 107.769531 141.359375 C 106.140625 140.28125 104.75 141.78125 104.890625 143.039063 C 105.640625 143.328125 106.160156 143.851563 107.050781 144 M 117.128906 142.800781 C 116.839844 140.109375 118.421875 139.289063 119.289063 137.757813 C 117.640625 138.03125 116.597656 138.910156 114.96875 139.199219 C 114.347656 140.820313 113.199219 142.25 114.25 143.757813 C 115.328125 143.558594 116.121094 143.070313 117.128906 142.800781 M 119.289063 19.199219 C 118.398438 17.160156 116.808594 16.128906 116.648438 13.921875 C 115.53125 14 115.089844 13.398438 114.25 13.199219 C 113.097656 14.378906 115.03125 16.53125 114.730469 17.519531 C 116.289063 18.039063 117.78125 18.640625 119.289063 19.199219 M 120.730469 135.359375 C 120.621094 134.191406 120.300781 133.230469 119.769531 132.480469 C 117.328125 133.699219 114.398438 135.507813 111.128906 135.117188 C 110.5 135.851563 109.511719 136.21875 109.210938 137.28125 C 113.011719 139.691406 118 136.289063 120.730469 135.359375 M 119.769531 24.238281 C 120.300781 23.039063 120.371094 22.828125 120.730469 21.601563 C 116.960938 20.480469 113.398438 17.441406 109.449219 19.679688 C 109.820313 20.75 110.75 21.261719 111.371094 22.078125 C 114.789063 21.21875 116.929688 23.710938 119.769531 24.238281 M 129.371094 24.238281 C 128.878906 23.449219 128.070313 22.980469 127.449219 22.320313 C 126.730469 24.710938 117.308594 29.148438 123.371094 30.71875 C 125.160156 28.351563 127.730469 26.761719 129.371094 24.238281 M 127.691406 134.398438 C 128.191406 133.539063 129.039063 133.03125 129.609375 132.238281 C 127.289063 130.238281 125.449219 127.757813 122.890625 126 C 122.480469 126.789063 121.621094 127.128906 121.210938 127.917969 C 123.578125 129.867188 125.429688 132.339844 127.691406 134.398438 M 132.730469 129.359375 C 133.480469 128.828125 133.960938 128.03125 134.648438 127.441406 C 132.347656 125.339844 130.460938 122.828125 127.929688 120.960938 C 127.441406 121.589844 127.089844 122.359375 126.25 122.640625 C 128.070313 125.21875 130.511719 127.179688 132.730469 129.359375 M 134.648438 29.28125 C 133.859375 28.871094 133.519531 28.011719 132.730469 27.601563 C 130.597656 29.871094 128.191406 31.859375 126.25 34.320313 C 127.140625 34.710938 127.609375 35.519531 128.410156 36 C 130.21875 33.488281 132.871094 31.828125 134.648438 29.28125 M 137.289063 48 C 139.550781 44.019531 136.898438 40.148438 135.847656 36.238281 C 134.511719 36.261719 133.960938 37.070313 132.96875 37.441406 C 133.75 40.019531 136.160156 43 134.890625 46.078125 C 136 46.410156 136.589844 47.261719 137.289063 48 M 135.371094 120.71875 C 136.441406 117.519531 139.808594 112.980469 137.289063 109.199219 C 135.691406 110.21875 135.511719 111.460938 135.128906 113.757813 C 134.71875 116.21875 132.910156 118.378906 132.730469 120 C 134 119.851563 134.128906 120.851563 135.371094 120.71875 M 142.328125 84.960938 C 144.089844 61.789063 135.171875 44.738281 124.089844 33.601563 C 112.429688 21.878906 94.96875 12.960938 72.011719 15.121094 C 64.019531 15.871094 56.019531 18.320313 49.929688 21.359375 C 37.261719 27.679688 27.628906 37.929688 21.609375 49.921875 C 18.832031 55.46875 15.621094 63.820313 14.890625 71.757813 C 13.519531 86.699219 17.152344 97.828125 21.609375 107.039063 C 27.859375 119.941406 37.449219 129.640625 50.410156 135.839844 C 56.851563 138.917969 64.460938 141.730469 72.25 142.320313 C 82.769531 143.117188 89.691406 141.53125 96.730469 139.679688 C 108.199219 136.660156 116.628906 130.679688 123.847656 123.601563 C 128.609375 118.929688 132.710938 113.78125 135.847656 107.28125 C 138.691406 101.410156 141.769531 92.300781 142.328125 84.960938 M 143.769531 42.960938 C 143.648438 42.578125 143.140625 41.429688 143.050781 40.320313 C 140.710938 40.5 139.539063 38.238281 138.011719 38.398438 C 138.769531 39.011719 138.96875 41.160156 139.691406 42.480469 C 141.050781 42.660156 142.660156 43.96875 143.769531 42.960938 M 142.570313 108 C 143.71875 107.890625 144.238281 105.898438 143.289063 105.117188 C 142.078125 104.867188 141.921875 105.667969 140.890625 105.601563 C 140.898438 106.949219 141.691406 107.519531 142.570313 108 M 143.050781 116.398438 C 142.898438 115.320313 144.011719 114.660156 143.53125 114 C 140.171875 112.507813 138.359375 117.058594 138.011719 119.28125 C 139.339844 117.96875 141.058594 117.058594 143.050781 116.398438 M 143.050781 52.078125 C 143.359375 51.351563 144.011719 50.960938 143.769531 49.679688 C 142.828125 48.570313 140.859375 49.289063 140.890625 51.121094 C 141.230469 51.820313 142.390625 51.699219 143.050781 52.078125 M 147.128906 70.320313 C 146.320313 69.210938 145.640625 67.96875 144.011719 67.679688 C 143.640625 68.589844 143.25 69.480469 143.050781 70.558594 C 144.75 71.019531 145.089844 72.839844 145.691406 74.398438 C 146.21875 73.089844 146.761719 71.789063 147.128906 70.320313 M 147.847656 65.519531 C 149.320313 62.25 149.871094 57.839844 149.53125 53.039063 C 144.160156 51.609375 148.121094 59.621094 145.929688 60.71875 C 144.199219 59.25 143.46875 56.78125 141.847656 55.199219 C 141.347656 56.058594 140.128906 56.199219 139.449219 56.878906 C 141.980469 60.03125 143.46875 64.21875 147.847656 65.519531 M 151.929688 89.28125 C 153.609375 86.269531 151.300781 84.21875 150.25 82.078125 C 149.878906 83.480469 149.441406 84.789063 149.050781 86.160156 C 149.871094 87.339844 150.71875 88.488281 151.929688 89.28125 M 152.648438 70.320313 C 152.800781 69.210938 152.109375 68.941406 152.171875 67.917969 C 145.671875 70.828125 147.199219 83.320313 143.050781 87.117188 C 143.449219 87.679688 143.679688 88.410156 143.769531 89.28125 C 150.308594 86.539063 148.320313 75.269531 152.648438 70.320313 M 154.089844 70.800781 C 155.070313 82.910156 153.21875 95.429688 149.769531 103.679688 C 149.820313 99.769531 149.128906 94.210938 148.089844 91.441406 C 143.46875 92.941406 141.597656 96.601563 139.449219 100.078125 C 139.691406 101.128906 141.308594 100.78125 141.609375 101.757813 C 143.160156 100.007813 144.371094 96.699219 146.410156 96.238281 C 146.640625 98.570313 146.710938 101.070313 146.648438 103.679688 C 147.46875 104.289063 148.800781 103.238281 149.769531 103.917969 C 141.488281 126.117188 126.558594 141.667969 103.929688 149.519531 L 103.929688 146.878906 C 101.46875 146.617188 98.691406 146.679688 96.25 146.398438 C 97.421875 144.289063 99.550781 143.140625 101.769531 142.078125 C 101.597656 140.96875 101.03125 140.269531 100.808594 139.199219 C 96.699219 141.089844 93.429688 143.820313 91.210938 147.601563 C 94.359375 149.257813 98.371094 150.039063 103.449219 149.757813 C 90.890625 155.429688 67.519531 155.160156 54.25 150 C 58.628906 149.820313 62.671875 149.300781 65.769531 147.839844 C 64.210938 143.558594 60.429688 141.5 56.890625 139.199219 C 56.28125 139.949219 56.058594 141.089844 55.210938 141.601563 C 57.128906 143.199219 60.011719 143.839844 60.96875 146.398438 C 58.769531 146.757813 56.070313 146.617188 53.53125 146.640625 C 52.980469 147.128906 53.441406 148.628906 53.289063 149.519531 C 30.921875 141.488281 15.871094 126.140625 7.691406 103.917969 C 8.960938 103.648438 9.160156 103.980469 10.332031 103.679688 C 10.308594 100.941406 10.660156 98.570313 10.808594 96 C 13.191406 96.898438 13.941406 99.429688 15.128906 101.519531 C 16.402344 101.507813 16.820313 100.648438 17.769531 100.320313 C 16.230469 96.128906 12.511719 93.007813 9.371094 91.199219 C 7.851563 94.078125 7.171875 97.800781 7.449219 102.480469 C 2.019531 91.308594 1.890625 67.21875 7.210938 54.480469 C 7.429688 58.738281 7.910156 62.738281 9.371094 65.757813 C 13.390625 63.941406 15.769531 60.480469 17.769531 56.640625 C 17.070313 56.140625 16.039063 55.96875 15.609375 55.199219 C 13.550781 56.578125 13.332031 59.800781 10.808594 60.71875 C 10.160156 58.378906 10.941406 55.859375 10.808594 53.28125 C 10.160156 52.808594 8.710938 53.140625 7.691406 53.039063 C 15.460938 31.140625 30.921875 15.871094 53.289063 7.441406 L 53.289063 10.320313 C 56.109375 10.21875 58.378906 10.671875 60.96875 10.800781 C 59.820313 13.171875 57.660156 13.53125 55.691406 15.359375 C 55.78125 16.46875 56.730469 16.71875 56.890625 17.761719 C 60.539063 15.648438 63.949219 13.300781 65.769531 9.359375 C 62.871094 7.621094 58.53125 7.320313 53.769531 7.441406 C 66.789063 1.261719 91.089844 2.050781 103.691406 7.199219 C 99.199219 7.570313 95.25 7.710938 91.449219 9.121094 C 93.011719 13.320313 96.769531 15.320313 100.089844 17.761719 C 100.941406 17.25 101.289063 16.238281 101.769531 15.359375 C 100.21875 13.550781 97.21875 13.191406 96.25 10.800781 C 98.5 10.410156 100.960938 10.230469 103.691406 10.320313 C 104.238281 9.75 103.78125 8.171875 103.929688 7.199219 C 122.578125 14.308594 138.628906 27.621094 147.128906 45.839844 C 150.359375 52.761719 153.371094 61.898438 154.089844 70.800781 "/>
<path style=" stroke:none;fill-rule:nonzero;fill:rgb(30.589294%,47.851563%,20.384216%);fill-opacity:1;" d="M 152.171875 67.917969 C 152.109375 68.941406 152.800781 69.210938 152.648438 70.320313 C 148.320313 75.269531 150.3125 86.539063 143.769531 89.28125 C 143.679688 88.410156 143.449219 87.679688 143.050781 87.121094 C 147.199219 83.320313 145.671875 70.828125 152.171875 67.917969 "/>
<path style=" stroke:none;fill-rule:nonzero;fill:rgb(30.589294%,47.851563%,20.384216%);fill-opacity:1;" d="M 150.25 82.078125 C 151.300781 84.21875 153.609375 86.269531 151.929688 89.277344 C 150.71875 88.488281 149.871094 87.339844 149.050781 86.160156 C 149.441406 84.789063 149.878906 83.480469 150.25 82.078125 "/>
<path style=" stroke:none;fill-rule:nonzero;fill:rgb(30.589294%,47.851563%,20.384216%);fill-opacity:1;" d="M 149.53125 53.039063 C 149.871094 57.839844 149.320313 62.25 147.847656 65.519531 C 143.46875 64.21875 141.980469 60.03125 139.449219 56.878906 C 140.128906 56.199219 141.347656 56.058594 141.847656 55.199219 C 143.46875 56.78125 144.199219 59.25 145.929688 60.71875 C 148.121094 59.621094 144.160156 51.609375 149.53125 53.039063 "/>
<path style=" stroke:none;fill-rule:nonzero;fill:rgb(30.589294%,47.851563%,20.384216%);fill-opacity:1;" d="M 144.011719 67.679688 C 145.640625 67.96875 146.320313 69.210938 147.128906 70.320313 C 146.761719 71.789063 146.21875 73.089844 145.691406 74.398438 C 145.089844 72.839844 144.75 71.019531 143.050781 70.558594 C 143.25 69.480469 143.640625 68.589844 144.011719 67.679688 "/>
<path style=" stroke:none;fill-rule:nonzero;fill:rgb(30.589294%,47.851563%,20.384216%);fill-opacity:1;" d="M 143.769531 49.679688 C 144.007813 50.960938 143.359375 51.351563 143.050781 52.078125 C 142.390625 51.699219 141.230469 51.820313 140.890625 51.121094 C 140.859375 49.289063 142.828125 48.570313 143.769531 49.679688 "/>
<path style=" stroke:none;fill-rule:nonzero;fill:rgb(30.589294%,47.851563%,20.384216%);fill-opacity:1;" d="M 143.53125 114 C 144.007813 114.660156 142.898438 115.320313 143.050781 116.398438 C 141.058594 117.058594 139.339844 117.96875 138.007813 119.277344 C 138.359375 117.058594 140.171875 112.511719 143.53125 114 "/>
<path style=" stroke:none;fill-rule:nonzero;fill:rgb(30.589294%,47.851563%,20.384216%);fill-opacity:1;" d="M 143.289063 105.121094 C 144.238281 105.898438 143.71875 107.890625 142.570313 108 C 141.691406 107.519531 140.898438 106.949219 140.890625 105.597656 C 141.921875 105.671875 142.078125 104.871094 143.289063 105.121094 "/>
<path style=" stroke:none;fill-rule:nonzero;fill:rgb(30.589294%,47.851563%,20.384216%);fill-opacity:1;" d="M 143.050781 40.320313 C 143.140625 41.429688 143.652344 42.578125 143.769531 42.960938 C 142.660156 43.96875 141.050781 42.660156 139.691406 42.480469 C 138.96875 41.160156 138.769531 39.007813 138.011719 38.398438 C 139.539063 38.238281 140.710938 40.5 143.050781 40.320313 "/>
<path style=" stroke:none;fill-rule:nonzero;fill:rgb(30.589294%,47.851563%,20.384216%);fill-opacity:1;" d="M 121.691406 121.679688 C 132.378906 111.429688 141.140625 95.519531 139.449219 73.199219 C 138.789063 64.460938 136 56.609375 132.25 49.921875 C 121.878906 31.429688 102.949219 15.339844 72.96875 18 C 56.851563 19.429688 45.019531 26.671875 36.25 34.558594 C 31.640625 38.710938 27.539063 44.78125 24.96875 49.679688 C 20.5 58.199219 15.839844 72.519531 18.25 87.839844 C 20.558594 102.539063 27.417969 113.417969 36.730469 122.640625 C 45.070313 130.898438 57.621094 138.28125 72.730469 139.441406 C 94.417969 141.109375 110.210938 132.691406 121.691406 121.679688 M 124.089844 33.601563 C 135.171875 44.738281 144.089844 61.789063 142.328125 84.960938 C 141.769531 92.300781 138.691406 101.410156 135.847656 107.28125 C 132.710938 113.78125 128.609375 118.929688 123.847656 123.601563 C 116.628906 130.679688 108.199219 136.660156 96.730469 139.679688 C 89.691406 141.53125 82.769531 143.117188 72.25 142.320313 C 64.460938 141.730469 56.851563 138.917969 50.410156 135.839844 C 37.449219 129.640625 27.859375 119.941406 21.609375 107.039063 C 17.148438 97.828125 13.519531 86.699219 14.890625 71.757813 C 15.621094 63.820313 18.832031 55.46875 21.609375 49.921875 C 27.628906 37.929688 37.261719 27.679688 49.929688 21.359375 C 56.019531 18.320313 64.019531 15.871094 72.011719 15.121094 C 94.96875 12.960938 112.429688 21.878906 124.089844 33.601563 "/>
<path style=" stroke:none;fill-rule:nonzero;fill:rgb(100%,100%,100%);fill-opacity:1;" d="M 33.371094 49.679688 C 42.308594 59.699219 52.511719 68.460938 61.449219 78.480469 C 52.109375 88.101563 42.550781 97.507813 33.128906 107.039063 C 34.109375 107.257813 34.679688 108.898438 35.53125 108.480469 C 45.582031 98.449219 55.859375 88.648438 65.53125 78.238281 C 55.550781 68.140625 45.621094 57.988281 35.289063 48.238281 C 34.75 47.871094 34.109375 49.449219 33.371094 49.679688 M 66.25 130.800781 L 69.371094 130.800781 C 69.210938 120.960938 69.691406 110.480469 69.128906 101.039063 C 62.371094 108.199219 55.167969 114.917969 48.25 121.917969 C 49.839844 123.917969 50.460938 123.851563 52.332031 121.917969 C 56.769531 117.339844 61.910156 111.28125 66.25 108.238281 Z M 69.609375 55.679688 L 69.609375 25.921875 L 66.730469 25.921875 C 66.570313 33.519531 67.050781 41.761719 66.488281 48.960938 C 60.710938 43.949219 56.019531 37.828125 49.929688 33.121094 C 49.261719 33.648438 48.789063 34.378906 48.25 35.039063 C 54.449219 40.839844 61.050781 47.839844 66.96875 53.761719 C 67.839844 54.628906 68.980469 56.050781 69.609375 55.679688 M 107.289063 124.078125 C 107.671875 123.179688 108.78125 123.007813 108.96875 121.917969 C 101.898438 114.988281 94.949219 107.941406 87.847656 101.039063 L 87.847656 130.800781 L 90.730469 130.800781 L 90.730469 108 C 96.378906 113.230469 101.828125 118.660156 107.289063 124.078125 M 119.769531 43.679688 C 117.621094 41.511719 115.679688 39.128906 113.289063 37.199219 C 108.140625 41.699219 103.398438 46.949219 98.410156 51.839844 C 93.449219 56.710938 88.75 62.03125 83.53125 66 L 83.53125 61.441406 C 92.21875 52.210938 101.269531 43.339844 110.171875 34.320313 C 100.921875 28.050781 90.179688 23.269531 73.449219 24.480469 C 73.289063 38.160156 73.769531 52.480469 73.210938 65.757813 C 63.160156 56.449219 53.980469 46.269531 43.929688 36.960938 C 41.808594 39.320313 39.570313 41.558594 37.210938 43.679688 C 48.121094 55.808594 60.601563 66.371094 71.289063 78.71875 C 60.300781 90.53125 48.167969 101.199219 37.449219 113.28125 C 39.667969 115.460938 41.730469 117.800781 44.167969 119.757813 C 53.738281 111.167969 63.738281 99.648438 73.449219 91.199219 L 73.449219 132.480469 L 83.53125 132.480469 L 83.53125 90.71875 C 93.820313 100.109375 103.210938 110.398438 113.289063 120 C 115.488281 117.480469 118.058594 115.328125 120.011719 112.558594 C 108.578125 101.191406 96.941406 90.03125 85.929688 78.238281 C 97.03125 66.539063 108.988281 55.699219 119.769531 43.679688 M 122.410156 108.480469 C 123.121094 108.148438 123.378906 107.367188 124.089844 107.039063 C 115.449219 96.648438 104.730469 88.320313 96.011719 78 C 105.109375 68.378906 114.949219 59.5 123.847656 49.679688 C 123.109375 49.21875 122.828125 48.300781 121.929688 48 C 111.988281 58.300781 101.628906 68.179688 91.691406 78.480469 C 102.171875 88.238281 111.539063 99.109375 122.410156 108.480469 M 139.449219 73.199219 C 141.140625 95.519531 132.378906 111.429688 121.691406 121.679688 C 110.210938 132.691406 94.417969 141.109375 72.730469 139.441406 C 57.621094 138.28125 45.070313 130.898438 36.730469 122.640625 C 27.417969 113.417969 20.558594 102.539063 18.25 87.839844 C 15.839844 72.519531 20.5 58.199219 24.96875 49.679688 C 27.539063 44.78125 31.640625 38.710938 36.25 34.558594 C 45.019531 26.671875 56.851563 19.429688 72.96875 18 C 102.949219 15.339844 121.878906 31.429688 132.25 49.921875 C 136 56.609375 138.789063 64.460938 139.449219 73.199219 "/>
<path style=" stroke:none;fill-rule:nonzero;fill:rgb(30.589294%,47.851563%,20.384216%);fill-opacity:1;" d="M 137.289063 109.199219 C 139.8125 112.980469 136.441406 117.519531 135.371094 120.71875 C 134.128906 120.847656 134 119.847656 132.730469 120 C 132.910156 118.378906 134.71875 116.21875 135.128906 113.761719 C 135.511719 111.460938 135.691406 110.21875 137.289063 109.199219 "/>
<path style=" stroke:none;fill-rule:nonzero;fill:rgb(30.589294%,47.851563%,20.384216%);fill-opacity:1;" d="M 135.851563 36.238281 C 136.902344 40.148438 139.550781 44.019531 137.289063 48 C 136.589844 47.257813 136 46.410156 134.890625 46.078125 C 136.160156 43 133.75 40.019531 132.96875 37.4375 C 133.960938 37.070313 134.511719 36.257813 135.851563 36.238281 "/>
<path style=" stroke:none;fill-rule:nonzero;fill:rgb(30.589294%,47.851563%,20.384216%);fill-opacity:1;" d="M 132.730469 27.597656 C 133.519531 28.011719 133.859375 28.871094 134.648438 29.28125 C 132.871094 31.828125 130.21875 33.488281 128.410156 36 C 127.609375 35.519531 127.140625 34.710938 126.25 34.320313 C 128.191406 31.859375 130.601563 29.871094 132.730469 27.597656 "/>
<path style=" stroke:none;fill-rule:nonzero;fill:rgb(30.589294%,47.851563%,20.384216%);fill-opacity:1;" d="M 134.648438 127.441406 C 133.960938 128.03125 133.480469 128.828125 132.730469 129.359375 C 130.507813 127.179688 128.070313 125.21875 126.25 122.640625 C 127.089844 122.359375 127.441406 121.589844 127.929688 120.960938 C 130.460938 122.828125 132.347656 125.339844 134.648438 127.441406 "/>
<path style=" stroke:none;fill-rule:nonzero;fill:rgb(30.589294%,47.851563%,20.384216%);fill-opacity:1;" d="M 129.609375 132.238281 C 129.039063 133.027344 128.191406 133.539063 127.691406 134.398438 C 125.429688 132.339844 123.578125 129.871094 121.210938 127.921875 C 121.621094 127.128906 122.480469 126.789063 122.890625 126 C 125.449219 127.761719 127.289063 130.238281 129.609375 132.238281 "/>
<path style=" stroke:none;fill-rule:nonzero;fill:rgb(30.589294%,47.851563%,20.384216%);fill-opacity:1;" d="M 127.449219 22.320313 C 128.070313 22.980469 128.878906 23.449219 129.371094 24.238281 C 127.730469 26.757813 125.160156 28.347656 123.371094 30.71875 C 117.308594 29.148438 126.730469 24.710938 127.449219 22.320313 "/>
<path style=" stroke:none;fill-rule:nonzero;fill:rgb(30.589294%,47.851563%,20.384216%);fill-opacity:1;" d="M 124.089844 107.039063 C 123.378906 107.367188 123.121094 108.148438 122.410156 108.480469 C 111.539063 99.109375 102.171875 88.238281 91.691406 78.480469 C 101.628906 68.179688 111.988281 58.300781 121.929688 48 C 122.828125 48.300781 123.109375 49.21875 123.851563 49.679688 C 114.949219 59.5 105.109375 68.378906 96.011719 78 C 104.730469 88.320313 115.449219 96.648438 124.089844 107.039063 "/>
<path style=" stroke:none;fill-rule:nonzero;fill:rgb(30.589294%,47.851563%,20.384216%);fill-opacity:1;" d="M 120.730469 21.597656 C 120.371094 22.828125 120.300781 23.039063 119.769531 24.238281 C 116.929688 23.710938 114.789063 21.21875 111.371094 22.078125 C 110.75 21.261719 109.820313 20.75 109.449219 19.679688 C 113.398438 17.441406 116.960938 20.480469 120.730469 21.597656 "/>
<path style=" stroke:none;fill-rule:nonzero;fill:rgb(30.589294%,47.851563%,20.384216%);fill-opacity:1;" d="M 119.769531 132.480469 C 120.300781 133.230469 120.621094 134.191406 120.730469 135.359375 C 118 136.289063 113.007813 139.691406 109.210938 137.28125 C 109.507813 136.21875 110.5 135.847656 111.128906 135.121094 C 114.398438 135.507813 117.328125 133.699219 119.769531 132.480469 "/>
<path style=" stroke:none;fill-rule:nonzero;fill:rgb(30.589294%,47.851563%,20.384216%);fill-opacity:1;" d="M 116.648438 13.917969 C 116.8125 16.128906 118.398438 17.160156 119.289063 19.199219 C 117.78125 18.640625 116.289063 18.039063 114.730469 17.519531 C 115.03125 16.53125 113.097656 14.378906 114.25 13.199219 C 115.089844 13.398438 115.53125 14 116.648438 13.917969 "/>
<path style=" stroke:none;fill-rule:nonzero;fill:rgb(30.589294%,47.851563%,20.384216%);fill-opacity:1;" d="M 119.289063 137.757813 C 118.421875 139.289063 116.839844 140.109375 117.128906 142.800781 C 116.121094 143.070313 115.328125 143.558594 114.25 143.757813 C 113.199219 142.25 114.351563 140.820313 114.96875 139.199219 C 116.601563 138.910156 117.640625 138.03125 119.289063 137.757813 "/>
<path style=" stroke:none;fill-rule:nonzero;fill:rgb(30.589294%,47.851563%,20.384216%);fill-opacity:1;" d="M 91.449219 37.917969 C 88.832031 37.097656 85.96875 36.308594 83.53125 36.480469 L 83.53125 45.839844 C 86.652344 43.679688 89.320313 41.070313 91.449219 37.917969 M 113.289063 37.199219 C 115.679688 39.128906 117.621094 41.511719 119.769531 43.679688 C 108.988281 55.699219 97.03125 66.539063 85.929688 78.238281 C 96.941406 90.03125 108.578125 101.191406 120.011719 112.558594 C 118.058594 115.328125 115.488281 117.480469 113.289063 120 C 103.210938 110.398438 93.820313 100.109375 83.53125 90.71875 L 83.53125 132.480469 L 73.449219 132.480469 L 73.449219 91.199219 C 63.738281 99.648438 53.738281 111.167969 44.171875 119.757813 C 41.730469 117.800781 39.671875 115.460938 37.449219 113.28125 C 48.171875 101.199219 60.300781 90.53125 71.289063 78.71875 C 60.601563 66.371094 48.121094 55.808594 37.210938 43.679688 C 39.570313 41.558594 41.808594 39.320313 43.929688 36.960938 C 53.980469 46.269531 63.160156 56.449219 73.210938 65.757813 C 73.769531 52.480469 73.289063 38.160156 73.449219 24.480469 C 90.179688 23.269531 100.921875 28.050781 110.171875 34.320313 C 101.269531 43.339844 92.21875 52.210938 83.53125 61.441406 L 83.53125 66 C 88.75 62.03125 93.449219 56.710938 98.410156 51.839844 C 103.398438 46.949219 108.140625 41.699219 113.289063 37.199219 "/>
<path style=" stroke:none;fill-rule:nonzero;fill:rgb(30.589294%,47.851563%,20.384216%);fill-opacity:1;" d="M 108.96875 121.921875 C 108.78125 123.011719 107.671875 123.179688 107.289063 124.078125 C 101.828125 118.660156 96.378906 113.230469 90.730469 108 L 90.730469 130.800781 L 87.847656 130.800781 L 87.847656 101.039063 C 94.949219 107.941406 101.902344 114.988281 108.96875 121.921875 "/>
<path style=" stroke:none;fill-rule:nonzero;fill:rgb(30.589294%,47.851563%,20.384216%);fill-opacity:1;" d="M 107.769531 141.359375 C 108.128906 142.21875 107.578125 143.339844 107.050781 144 C 106.160156 143.847656 105.640625 143.328125 104.890625 143.039063 C 104.75 141.78125 106.140625 140.28125 107.769531 141.359375 "/>
<path style=" stroke:none;fill-rule:nonzero;fill:rgb(30.589294%,47.851563%,20.384216%);fill-opacity:1;" d="M 104.890625 13.679688 C 108.359375 11.589844 108.742188 16.789063 105.851563 16.320313 C 105.378906 15.25 104.941406 14.640625 104.890625 13.679688 "/>
<path style=" stroke:none;fill-rule:nonzero;fill:rgb(30.589294%,47.851563%,20.384216%);fill-opacity:1;" d="M 89.289063 12.480469 C 89.191406 13.578125 87.851563 13.441406 87.128906 13.917969 C 81.890625 9.597656 72.480469 10.929688 68.167969 5.761719 C 68.359375 5 69.238281 4.320313 69.851563 4.320313 C 70.839844 4.320313 71.03125 5.21875 72.25 5.761719 C 76.851563 7.808594 87.3125 8.089844 89.289063 12.480469 "/>
<path style=" stroke:none;fill-rule:nonzero;fill:rgb(30.589294%,47.851563%,20.384216%);fill-opacity:1;" d="M 89.289063 151.679688 C 89.082031 152.667969 87.589844 152.378906 86.890625 152.878906 C 81.609375 147.949219 71.488281 150.148438 67.929688 144.238281 C 68.898438 143.539063 69.808594 143.648438 70.332031 143.28125 C 75.75 147.378906 86.050781 145.859375 89.289063 151.679688 "/>
<path style=" stroke:none;fill-rule:nonzero;fill:rgb(30.589294%,47.851563%,20.384216%);fill-opacity:1;" d="M 89.289063 5.039063 C 88.71875 5.839844 88.03125 7.5 86.648438 8.160156 C 85.03125 7.800781 83.519531 7.078125 82.332031 6.960938 C 84.859375 6.179688 86.300781 3.378906 89.289063 5.039063 "/>
<path style=" stroke:none;fill-rule:nonzero;fill:rgb(30.589294%,47.851563%,20.384216%);fill-opacity:1;" d="M 82.332031 145.921875 C 84.710938 144.949219 86.351563 142.449219 89.289063 144 C 88.011719 147.367188 85.730469 147.421875 82.332031 145.921875 "/>
<path style=" stroke:none;fill-rule:nonzero;fill:rgb(100%,100%,100%);fill-opacity:1;" d="M 83.53125 36.480469 C 85.96875 36.308594 88.832031 37.097656 91.449219 37.917969 C 89.320313 41.070313 86.652344 43.679688 83.53125 45.839844 "/>
<path style=" stroke:none;fill-rule:nonzero;fill:rgb(30.589294%,47.851563%,20.384216%);fill-opacity:1;" d="M 75.128906 150.238281 C 73.667969 151.261719 71.179688 151.25 70.332031 152.878906 C 69.25 152.761719 68.390625 152.421875 67.691406 151.921875 C 68.621094 148.679688 72.308594 148.839844 75.128906 150.238281 "/>
<g clip-path="url(#clip4)" clip-rule="nonzero">
<path style=" stroke:none;fill-rule:nonzero;fill:rgb(100%,100%,100%);fill-opacity:1;" d="M 0.25 0 L 72.488281 0 C 51.800781 1.859375 36.230469 11.171875 23.53125 22.800781 C 11.699219 33.628906 2.960938 51.269531 0.25 71.039063 "/>
</g>
<path style=" stroke:none;fill-rule:nonzero;fill:rgb(30.589294%,47.851563%,20.384216%);fill-opacity:1;" d="M 67.691406 13.199219 C 69.03125 10.121094 71.730469 9.46875 74.890625 11.28125 C 73.21875 12.011719 71.46875 12.660156 70.570313 14.160156 C 69.660156 13.789063 68.769531 13.398438 67.691406 13.199219 "/>
<g clip-path="url(#clip5)" clip-rule="nonzero">
<path style=" stroke:none;fill-rule:nonzero;fill:rgb(100%,100%,100%);fill-opacity:1;" d="M 71.289063 156.960938 L 0.25 156.960938 L 0.25 85.199219 C 3.058594 108.570313 12.660156 124.230469 26.648438 137.277344 C 36.929688 146.867188 54.238281 155.027344 71.289063 156.960938 "/>
</g>
<path style=" stroke:none;fill-rule:nonzero;fill:rgb(30.589294%,47.851563%,20.384216%);fill-opacity:1;" d="M 69.609375 25.917969 L 69.609375 55.679688 C 68.980469 56.050781 67.839844 54.628906 66.96875 53.761719 C 61.050781 47.839844 54.449219 40.839844 48.25 35.039063 C 48.789063 34.378906 49.261719 33.648438 49.929688 33.117188 C 56.019531 37.828125 60.710938 43.949219 66.488281 48.960938 C 67.050781 41.761719 66.570313 33.519531 66.730469 25.917969 "/>
<path style=" stroke:none;fill-rule:nonzero;fill:rgb(30.589294%,47.851563%,20.384216%);fill-opacity:1;" d="M 69.371094 130.800781 L 66.25 130.800781 L 66.25 108.238281 C 61.910156 111.277344 56.769531 117.339844 52.332031 121.917969 C 50.460938 123.851563 49.839844 123.917969 48.25 121.917969 C 55.167969 114.917969 62.371094 108.199219 69.128906 101.039063 C 69.691406 110.480469 69.210938 120.960938 69.371094 130.800781 "/>
<path style=" stroke:none;fill-rule:nonzero;fill:rgb(30.589294%,47.851563%,20.384216%);fill-opacity:1;" d="M 52.089844 13.917969 C 52.261719 15.210938 51.378906 15.449219 51.128906 16.320313 C 50.410156 16 49.578125 15.789063 49.210938 15.117188 C 49.019531 13.238281 51.261719 12.820313 52.089844 13.917969 "/>
<path style=" stroke:none;fill-rule:nonzero;fill:rgb(30.589294%,47.851563%,20.384216%);fill-opacity:1;" d="M 49.210938 141.597656 C 54.519531 138.910156 50.332031 147.96875 49.210938 141.597656 "/>
<path style=" stroke:none;fill-rule:nonzero;fill:rgb(30.589294%,47.851563%,20.384216%);fill-opacity:1;" d="M 61.449219 78.480469 C 52.511719 68.460938 42.308594 59.699219 33.371094 49.679688 C 34.109375 49.449219 34.75 47.867188 35.289063 48.238281 C 45.621094 57.988281 55.550781 68.140625 65.53125 78.238281 C 55.859375 88.648438 45.582031 98.449219 35.53125 108.480469 C 34.679688 108.898438 34.109375 107.257813 33.128906 107.039063 C 42.550781 97.507813 52.109375 88.097656 61.449219 78.480469 "/>
<path style=" stroke:none;fill-rule:nonzero;fill:rgb(30.589294%,47.851563%,20.384216%);fill-opacity:1;" d="M 46.332031 135.121094 C 46.429688 136.140625 47.550781 136.140625 47.53125 137.277344 C 43.949219 139.761719 40.011719 136.121094 36.25 135.359375 C 36.640625 133.929688 36.898438 133.777344 37.210938 132.480469 C 40.089844 133.398438 42.871094 135.578125 46.332031 135.121094 "/>
<path style=" stroke:none;fill-rule:nonzero;fill:rgb(30.589294%,47.851563%,20.384216%);fill-opacity:1;" d="M 36.488281 21.597656 C 39.738281 20.660156 44.039063 17.410156 47.53125 19.679688 C 45.710938 22.820313 40.332031 22.398438 37.210938 24.238281 C 37.082031 23.25 36.519531 22.691406 36.488281 21.597656 "/>
<path style=" stroke:none;fill-rule:nonzero;fill:rgb(30.589294%,47.851563%,20.384216%);fill-opacity:1;" d="M 38.167969 137.757813 C 40.308594 138.789063 44.101563 138.828125 43.210938 143.519531 C 41.929688 143.519531 41.269531 142.898438 40.332031 142.558594 C 40.511719 140.058594 38.648438 139.601563 38.167969 137.757813 "/>
<path style=" stroke:none;fill-rule:nonzero;fill:rgb(30.589294%,47.851563%,20.384216%);fill-opacity:1;" d="M 42.96875 13.679688 C 43.789063 15.070313 42.621094 16.308594 42.488281 17.519531 C 40.851563 17.960938 39.582031 18.769531 37.929688 19.199219 C 38.609375 17.480469 40.199219 16.671875 40.332031 14.398438 C 41.460938 14.410156 41.800781 13.628906 42.96875 13.679688 "/>
<path style=" stroke:none;fill-rule:nonzero;fill:rgb(30.589294%,47.851563%,20.384216%);fill-opacity:1;" d="M 36.25 28.800781 C 35.589844 29.417969 35.148438 30.257813 34.332031 30.71875 C 31.832031 28.980469 29.960938 26.609375 27.851563 24.480469 C 28.53125 23.960938 28.78125 23.007813 29.53125 22.558594 C 32.140625 24.269531 33.832031 26.898438 36.25 28.800781 "/>
<path style=" stroke:none;fill-rule:nonzero;fill:rgb(30.589294%,47.851563%,20.384216%);fill-opacity:1;" d="M 33.851563 126 C 35.011719 126.117188 35.359375 127.050781 36.011719 127.679688 C 34.441406 128.539063 29.410156 137.859375 27.851563 132.238281 C 30.019531 130.328125 31.980469 128.210938 33.851563 126 "/>
<path style=" stroke:none;fill-rule:nonzero;fill:rgb(30.589294%,47.851563%,20.384216%);fill-opacity:1;" d="M 29.050781 120.960938 C 30.140625 121.148438 30.308594 122.261719 31.210938 122.640625 C 29.480469 125.230469 26.832031 126.898438 24.96875 129.359375 C 24.109375 128.9375 23.570313 128.199219 22.808594 127.679688 C 24.539063 125.089844 27.171875 123.398438 29.050781 120.960938 "/>
<path style=" stroke:none;fill-rule:nonzero;fill:rgb(30.589294%,47.851563%,20.384216%);fill-opacity:1;" d="M 30.96875 34.078125 C 30.832031 34.980469 29.910156 35.097656 29.53125 35.761719 C 26.839844 34.210938 25.179688 31.628906 22.808594 29.761719 C 22.980469 28.808594 24 28.710938 24.25 27.839844 C 27.191406 29.21875 28.890625 31.839844 30.96875 34.078125 "/>
<path style=" stroke:none;fill-rule:nonzero;fill:rgb(30.589294%,47.851563%,20.384216%);fill-opacity:1;" d="M 24.488281 120 C 23.441406 120.519531 22.980469 120.210938 22.089844 120.960938 C 20.832031 117.859375 17.359375 112.628906 19.929688 109.4375 C 22.78125 111.628906 22.679688 116.769531 24.488281 120 "/>
<path style=" stroke:none;fill-rule:nonzero;fill:rgb(30.589294%,47.851563%,20.384216%);fill-opacity:1;" d="M 21.851563 36.238281 C 23.140625 36.679688 23.199219 36.898438 24.488281 37.199219 C 22.308594 40.269531 22.789063 45.390625 20.410156 47.757813 C 16.871094 45.058594 20.699219 39.359375 21.851563 36.238281 "/>
<path style=" stroke:none;fill-rule:nonzero;fill:rgb(30.589294%,47.851563%,20.384216%);fill-opacity:1;" d="M 18.730469 38.160156 C 19.589844 40.21875 16.699219 44.75 13.449219 42.71875 C 13.558594 41.628906 14.070313 40.941406 14.410156 40.078125 C 16.351563 40.851563 17.488281 38.878906 18.730469 38.160156 "/>
<path style=" stroke:none;fill-rule:nonzero;fill:rgb(30.589294%,47.851563%,20.384216%);fill-opacity:1;" d="M 19.449219 119.277344 C 17.75 118.421875 16.519531 117.097656 14.410156 116.640625 C 14.210938 115.800781 13.769531 115.199219 13.691406 114.238281 C 17.371094 112.589844 18.789063 116.421875 19.449219 119.277344 "/>
<path style=" stroke:none;fill-rule:nonzero;fill:rgb(30.589294%,47.851563%,20.384216%);fill-opacity:1;" d="M 16.089844 49.679688 C 16.21875 50.929688 15.710938 51.539063 15.128906 52.078125 C 14.128906 51.800781 13.289063 51.359375 13.210938 50.160156 C 13.359375 49.101563 15.488281 48.878906 16.089844 49.679688 "/>
<path style=" stroke:none;fill-rule:nonzero;fill:rgb(30.589294%,47.851563%,20.384216%);fill-opacity:1;" d="M 15.851563 105.359375 C 16.101563 105.878906 16.210938 107.019531 15.609375 107.757813 C 14.621094 107.949219 14.378906 107.390625 13.449219 107.519531 C 12.511719 105.949219 14.339844 104.449219 15.851563 105.359375 "/>
<path style=" stroke:none;fill-rule:nonzero;fill:rgb(30.589294%,47.851563%,20.384216%);fill-opacity:1;" d="M 12.730469 67.917969 C 13.53125 68.320313 13.398438 69.648438 13.929688 70.320313 C 9.589844 75.570313 11.101563 85.960938 5.289063 89.28125 C 3.25 87.097656 5.140625 86.398438 6.25 83.519531 C 8.230469 78.371094 8.5 70.03125 12.730469 67.917969 "/>
<path style=" stroke:none;fill-rule:nonzero;fill:rgb(30.589294%,47.851563%,20.384216%);fill-opacity:1;" d="M 11.53125 82.078125 C 12.179688 84.769531 14.878906 86.628906 12.96875 89.277344 C 9.761719 88.558594 9.609375 84.367188 11.53125 82.078125 "/>
<path style=" stroke:none;fill-rule:nonzero;fill:rgb(30.589294%,47.851563%,20.384216%);fill-opacity:1;" d="M 5.050781 67.679688 C 8.53125 68.351563 8.371094 71.738281 6.96875 74.640625 C 5.628906 73.660156 6.148438 70.820313 4.089844 70.558594 C 4.390625 69.578125 4.710938 68.628906 5.050781 67.679688 "/>
</g>
</svg>
